<svg xmlns="http://www.w3.org/2000/svg" xmlns:xlink="http://www.w3.org/1999/xlink" x="0" y="0" width="661.3333740234375" height="358.66668701171875" style="
        width:661.3333740234375px;
        height:358.66668701171875px;
        background: #FFF;
        fill: none;
">
        
        
        <svg xmlns="http://www.w3.org/2000/svg" class="role-diagram-draw-area"><g class="shapes-region" style="stroke: black; fill: none;"><g class="composite-shape" data-amt="diagram/shapes/plot" transform="matrix(1,0,0,1,18,10)"><g><g><g class="test-xgi"><line x1="16.004332542723688" y1="3" x2="16.004332542723688" y2="319.2083282470703" fill="none" stroke="#c3c3c3" stroke-width="0.5"/><line x1="109.41955502848246" y1="3" x2="109.41955502848246" y2="319.2083282470703" fill="none" stroke="#c3c3c3" stroke-width="0.5"/><line x1="202.83477751424124" y1="3" x2="202.83477751424124" y2="319.2083282470703" fill="none" stroke="#c3c3c3" stroke-width="0.5"/><line x1="296.25" y1="3" x2="296.25" y2="319.2083282470703" fill="none" stroke="#c3c3c3" stroke-width="0.5"/><line x1="389.6652224857588" y1="3" x2="389.6652224857588" y2="319.2083282470703" fill="none" stroke="#c3c3c3" stroke-width="0.5"/><line x1="483.0804449715176" y1="3" x2="483.0804449715176" y2="319.2083282470703" fill="none" stroke="#c3c3c3" stroke-width="0.5"/><line x1="576.4956674572765" y1="3" x2="576.4956674572765" y2="319.2083282470703" fill="none" stroke="#c3c3c3" stroke-width="0.5"/></g><g class="test-ygi"><line x1="14" y1="233.5885319796531" x2="612" y2="233.5885319796531" fill="none" stroke="#c3c3c3" stroke-width="0.5"/><line x1="14" y1="140.17330949389432" x2="612" y2="140.17330949389432" fill="none" stroke="#c3c3c3" stroke-width="0.5"/><line x1="14" y1="46.75808700813553" x2="612" y2="46.75808700813553" fill="none" stroke="#c3c3c3" stroke-width="0.5"/></g></g><g><rect class="real" x="15" y="4" width="596" height="314.2083282470703" style="fill: transparent; stroke: gray;"/><g class="test-plot-expression"><defs><clipPath id="cp8shqphd0j"><rect x="15" y="4" width="596" height="314.2083282470703"/></clipPath></defs><g clip-path="url(#cp8shqphd0j)"><path d=" M330.94,221.37 L330.92,221.18 L330.82,220.13 L330.73,219.08 L330.67,218.02 L330.62,216.97 L330.60,215.91 L330.59,214.86 L330.60,213.81 L330.63,212.75 L330.68,211.70 L330.74,210.64 L330.83,209.59 L330.93,208.54 L330.94,208.44 L331.05,207.48 L331.20,206.43 L331.36,205.37 L331.55,204.32 L331.75,203.27 L331.97,202.21 L332.21,201.16 L332.47,200.10 L332.75,199.05 L332.93,198.42 L333.06,198.00 L333.39,196.94 L333.74,195.89 L334.11,194.83 L334.50,193.78 L334.91,192.72 L334.93,192.67 L335.35,191.67 L335.82,190.62 L336.30,189.56 L336.81,188.51 L336.92,188.29 L337.36,187.45 L337.92,186.40 L338.52,185.35 L338.91,184.66 L339.14,184.29 L339.80,183.24 L340.48,182.18 L340.91,181.55 L341.20,181.13 L341.95,180.08 L342.73,179.02 L342.90,178.80 L343.56,177.97 L344.43,176.91 L344.89,176.36 L345.33,175.86 L346.29,174.81 L346.89,174.16 L347.28,173.75 L348.33,172.70 L348.88,172.16 L349.44,171.64 L350.60,170.59 L350.87,170.35 L351.83,169.54 L352.87,168.69 L353.13,168.48 L354.51,167.43 L354.86,167.17 L355.99,166.37 L356.85,165.78 L357.56,165.32 L358.85,164.50 L359.24,164.27 L360.84,163.33 L361.07,163.21 L362.83,162.27 L363.06,162.16 L364.83,161.30 L365.27,161.10 L366.82,160.42 L367.75,160.05 L368.81,159.63 L370.58,159.00 L370.81,158.92 L372.80,158.28 L374.02,157.94 L374.79,157.73 L376.79,157.25 L378.53,156.89 L378.78,156.84 L380.77,156.50 L382.77,156.23 L384.76,156.03 L386.75,155.90 L388.67,155.83 L388.75,155.83 L390.54,155.83 L390.74,155.83 L392.73,155.90 L394.73,156.04 L396.72,156.25 L398.71,156.52 L400.71,156.87 L400.82,156.89 L402.70,157.28 L404.69,157.77 L405.31,157.94 L406.69,158.33 L408.68,158.97 L408.76,159.00 L410.67,159.69 L411.58,160.05 L412.67,160.49 L414.06,161.10 L414.66,161.37 L416.27,162.16 L416.65,162.35 L418.26,163.21 L418.65,163.42 L420.09,164.27 L420.64,164.60 L421.77,165.32 L422.63,165.88 L423.35,166.37 L424.63,167.28 L424.82,167.43 L426.20,168.48 L426.62,168.81 L427.50,169.54 L428.61,170.48 L428.74,170.59 L429.89,171.64 L430.61,172.31 L431.00,172.70 L432.05,173.75 L432.60,174.32 L433.05,174.81 L434.00,175.86 L434.59,176.54 L434.91,176.91 L435.77,177.97 L436.59,179.00 L436.60,179.02 L437.38,180.08 L438.13,181.13 L438.58,181.77 L438.85,182.18 L439.53,183.24 L440.19,184.29 L440.57,184.93 L440.82,185.35 L441.41,186.40 L441.97,187.45 L442.52,188.51 L442.57,188.60 L443.03,189.56 L443.51,190.62 L443.98,191.67 L444.42,192.72 L444.56,193.07 L444.84,193.78 L445.22,194.83 L445.59,195.89 L445.94,196.94 L446.27,198.00 L446.55,198.96 L446.58,199.05 L446.86,200.10 L447.12,201.16 L447.36,202.21 L447.58,203.27 L447.78,204.32 L447.97,205.37 L448.13,206.43 L448.27,207.48 L448.40,208.54 L448.51,209.59 L448.55,210.08 L448.59,210.64 L448.66,211.70 L448.70,212.75 L448.73,213.81 L448.74,214.86 L448.73,215.91 L448.71,216.97 L448.66,218.02 L448.60,219.08 L448.55,219.73 L448.51,220.13 L448.41,221.18 L448.29,222.24 L448.14,223.29 L447.98,224.35 L447.80,225.40 L447.60,226.45 L447.38,227.51 L447.14,228.56 L446.88,229.62 L446.60,230.67 L446.55,230.85 L446.30,231.72 L445.97,232.78 L445.62,233.83 L445.26,234.89 L444.87,235.94 L444.56,236.74 L444.46,236.99 L444.02,238.05 L443.55,239.10 L443.07,240.16 L442.57,241.21 L442.57,241.21 L442.02,242.26 L441.46,243.32 L440.87,244.37 L440.57,244.88 L440.25,245.43 L439.59,246.48 L438.91,247.53 L438.58,248.04 L438.20,248.59 L437.45,249.64 L436.67,250.70 L436.59,250.81 L435.84,251.75 L434.98,252.80 L434.59,253.27 L434.08,253.86 L433.13,254.91 L432.60,255.49 L432.14,255.97 L431.09,257.02 L430.61,257.50 L429.99,258.07 L428.84,259.13 L428.61,259.33 L427.61,260.18 L426.62,261.00 L426.32,261.24 L424.94,262.29 L424.63,262.53 L423.48,263.34 L422.63,263.93 L421.92,264.40 L420.64,265.21 L420.24,265.45 L418.65,266.39 L418.43,266.51 L416.65,267.46 L416.45,267.56 L414.66,268.44 L414.27,268.61 L412.67,269.32 L411.81,269.67 L410.67,270.12 L409.01,270.72 L408.68,270.84 L406.69,271.48 L405.64,271.78 L404.69,272.04 L402.70,272.53 L401.26,272.83 L400.71,272.94 L398.71,273.29 L396.72,273.56 L394.73,273.77 L393.05,273.89 L392.73,273.91 L390.74,273.98 L388.75,273.98 L386.75,273.91 L386.31,273.89 L384.76,273.78 L382.77,273.58 L380.77,273.31 L378.78,272.97 L378.08,272.83 L376.79,272.56 L374.79,272.08 L373.69,271.78 L372.80,271.53 L370.81,270.89 L370.32,270.72 L368.81,270.18 L367.52,269.67 L366.82,269.39 L365.06,268.61 L364.83,268.51 L362.87,267.56 L362.83,267.54 L360.89,266.51 L360.84,266.48 L359.09,265.45 L358.85,265.31 L357.41,264.40 L356.85,264.03 L355.85,263.34 L354.86,262.64 L354.39,262.29 L353.01,261.24 L352.87,261.13 L351.72,260.18 L350.87,259.46 L350.50,259.13 L349.34,258.07 L348.88,257.65 L348.24,257.02 L347.19,255.97 L346.89,255.65 L346.20,254.91 L345.25,253.86 L344.89,253.45 L344.35,252.80 L343.49,251.75 L342.90,251.01 L342.66,250.70 L341.89,249.64 L341.13,248.59 L340.91,248.27 L340.42,247.53 L339.74,246.48 L339.08,245.43 L338.91,245.15 L338.46,244.37 L337.87,243.32 L337.31,242.26 L336.92,241.52 L336.77,241.21 L336.26,240.16 L335.78,239.10 L335.31,238.05 L334.93,237.13 L334.87,236.99 L334.46,235.94 L334.07,234.89 L333.71,233.83 L333.36,232.78 L333.03,231.72 L332.93,231.39 L332.73,230.67 L332.45,229.62 L332.19,228.56 L331.95,227.51 L331.73,226.45 L331.53,225.40 L331.35,224.35 L331.19,223.29 L331.04,222.24 L330.94,221.37" style="stroke-width: 2; stroke: rgb(74, 144, 226); stroke-opacity: 1;"/><path d=" M227.29,114.23 L227.20,113.67 L227.04,112.62 L226.90,111.56 L226.78,110.51 L226.67,109.46 L226.58,108.40 L226.50,107.35 L226.44,106.29 L226.39,105.24 L226.37,104.19 L226.35,103.13 L226.36,102.08 L226.37,101.02 L226.41,99.97 L226.46,98.92 L226.53,97.86 L226.61,96.81 L226.71,95.75 L226.82,94.70 L226.95,93.65 L227.10,92.59 L227.26,91.54 L227.29,91.37 L227.44,90.48 L227.64,89.43 L227.86,88.38 L228.09,87.32 L228.34,86.27 L228.60,85.21 L228.88,84.16 L229.18,83.11 L229.28,82.77 L229.50,82.05 L229.84,81.00 L230.20,79.94 L230.57,78.89 L230.96,77.84 L231.27,77.03 L231.37,76.78 L231.81,75.73 L232.26,74.67 L232.74,73.62 L233.22,72.57 L233.27,72.48 L233.75,71.51 L234.29,70.46 L234.85,69.40 L235.26,68.65 L235.43,68.35 L236.04,67.30 L236.68,66.24 L237.25,65.31 L237.33,65.19 L238.02,64.13 L238.74,63.08 L239.25,62.35 L239.48,62.03 L240.25,60.97 L241.05,59.92 L241.24,59.67 L241.89,58.86 L242.76,57.81 L243.23,57.25 L243.66,56.76 L244.61,55.70 L245.23,55.02 L245.59,54.65 L246.61,53.59 L247.22,52.98 L247.68,52.54 L248.79,51.49 L249.21,51.10 L249.96,50.43 L251.17,49.38 L251.21,49.35 L252.46,48.32 L253.20,47.73 L253.81,47.27 L255.19,46.23 L255.21,46.22 L256.72,45.16 L257.19,44.84 L258.30,44.11 L259.18,43.54 L259.98,43.05 L261.17,42.34 L261.78,42.00 L263.17,41.23 L263.71,40.94 L265.16,40.20 L265.80,39.89 L267.15,39.25 L268.08,38.84 L269.15,38.37 L270.60,37.78 L271.14,37.57 L273.13,36.84 L273.45,36.73 L275.13,36.17 L276.77,35.67 L277.12,35.57 L279.11,35.04 L280.86,34.62 L281.11,34.56 L283.10,34.15 L285.09,33.80 L286.66,33.57 L287.09,33.51 L289.08,33.27 L291.07,33.10 L293.07,32.98 L295.06,32.91 L297.05,32.91 L299.05,32.96 L301.04,33.07 L303.03,33.23 L305.03,33.46 L305.82,33.57 L307.02,33.74 L309.01,34.08 L311.01,34.48 L311.63,34.62 L313.00,34.94 L314.99,35.46 L315.72,35.67 L316.99,36.05 L318.98,36.70 L319.06,36.73 L320.97,37.42 L321.89,37.78 L322.97,38.21 L324.42,38.84 L324.96,39.07 L326.71,39.89 L326.95,40.01 L328.80,40.94 L328.95,41.02 L330.73,42.00 L330.94,42.12 L332.52,43.05 L332.93,43.30 L334.20,44.11 L334.93,44.58 L335.78,45.16 L336.92,45.95 L337.28,46.22 L338.70,47.27 L338.91,47.43 L340.04,48.32 L340.91,49.03 L341.32,49.38 L342.54,50.43 L342.90,50.75 L343.70,51.49 L344.83,52.54 L344.89,52.60 L345.89,53.59 L346.89,54.61 L346.92,54.65 L347.89,55.70 L348.84,56.76 L348.88,56.80 L349.74,57.81 L350.61,58.86 L350.87,59.19 L351.44,59.92 L352.25,60.97 L352.87,61.81 L353.02,62.03 L353.76,63.08 L354.48,64.13 L354.86,64.71 L355.17,65.19 L355.82,66.24 L356.46,67.30 L356.85,67.97 L357.07,68.35 L357.65,69.40 L358.21,70.46 L358.76,71.51 L358.85,71.69 L359.27,72.57 L359.76,73.62 L360.24,74.67 L360.70,75.73 L360.84,76.07 L361.13,76.78 L361.54,77.84 L361.93,78.89 L362.31,79.94 L362.66,81.00 L362.83,81.52 L363.00,82.05 L363.32,83.11 L363.62,84.16 L363.90,85.21 L364.16,86.27 L364.41,87.32 L364.65,88.38 L364.83,89.25 L364.86,89.43 L365.06,90.48 L365.24,91.54 L365.40,92.59 L365.55,93.65 L365.68,94.70 L365.79,95.75 L365.89,96.81 L365.97,97.86 L366.04,98.92 L366.09,99.97 L366.13,101.02 L366.15,102.08 L366.15,103.13 L366.14,104.19 L366.11,105.24 L366.06,106.29 L366.00,107.35 L365.92,108.40 L365.83,109.46 L365.72,110.51 L365.60,111.56 L365.46,112.62 L365.30,113.67 L365.13,114.73 L364.94,115.78 L364.83,116.36 L364.73,116.83 L364.51,117.89 L364.26,118.94 L364.00,120.00 L363.73,121.05 L363.43,122.11 L363.12,123.16 L362.83,124.10 L362.80,124.21 L362.44,125.27 L362.08,126.32 L361.69,127.38 L361.29,128.43 L360.87,129.48 L360.84,129.54 L360.42,130.54 L359.95,131.59 L359.46,132.65 L358.96,133.70 L358.85,133.92 L358.42,134.75 L357.87,135.81 L357.29,136.86 L356.85,137.65 L356.70,137.92 L356.07,138.97 L355.42,140.02 L354.86,140.91 L354.75,141.08 L354.04,142.13 L353.31,143.19 L352.87,143.81 L352.55,144.24 L351.75,145.29 L350.94,146.35 L350.87,146.43 L350.08,147.40 L349.19,148.46 L348.88,148.81 L348.26,149.51 L347.29,150.56 L346.89,151.00 L346.28,151.62 L345.24,152.67 L344.89,153.01 L344.14,153.73 L343.00,154.78 L342.90,154.87 L341.79,155.83 L340.91,156.59 L340.54,156.89 L339.22,157.94 L338.91,158.18 L337.83,159.00 L336.92,159.66 L336.37,160.05 L334.93,161.04 L334.83,161.10 L333.18,162.16 L332.93,162.31 L331.43,163.21 L330.94,163.50 L329.55,164.27 L328.95,164.59 L327.52,165.32 L326.95,165.61 L325.33,166.37 L324.96,166.54 L322.97,167.41 L322.91,167.43 L320.97,168.19 L320.18,168.48 L318.98,168.91 L317.08,169.54 L316.99,169.57 L314.99,170.15 L313.33,170.59 L313.00,170.68 L311.01,171.14 L309.01,171.54 L308.39,171.64 L307.02,171.88 L305.03,172.16 L303.03,172.38 L301.04,172.55 L299.05,172.66 L297.43,172.70 L297.05,172.71 L295.06,172.70 L294.93,172.70 L293.07,172.64 L291.07,172.52 L289.08,172.34 L287.09,172.11 L285.09,171.82 L284.12,171.64 L283.10,171.46 L281.11,171.05 L279.16,170.59 L279.11,170.58 L277.12,170.04 L275.43,169.54 L275.13,169.44 L273.13,168.78 L272.32,168.48 L271.14,168.05 L269.60,167.43 L269.15,167.24 L267.16,166.37 L267.15,166.37 L265.16,165.42 L264.97,165.32 L263.17,164.39 L262.95,164.27 L261.17,163.27 L261.07,163.21 L259.32,162.16 L259.18,162.07 L257.68,161.10 L257.19,160.78 L256.14,160.05 L255.19,159.38 L254.67,159.00 L253.28,157.94 L253.20,157.88 L251.97,156.89 L251.21,156.26 L250.71,155.83 L249.50,154.78 L249.21,154.52 L248.36,153.73 L247.26,152.67 L247.22,152.64 L246.22,151.62 L245.23,150.59 L245.20,150.56 L244.24,149.51 L243.31,148.46 L243.23,148.37 L242.42,147.40 L241.56,146.35 L241.24,145.94 L240.74,145.29 L239.95,144.24 L239.25,143.27 L239.19,143.19 L238.46,142.13 L237.76,141.08 L237.25,140.30 L237.08,140.02 L236.43,138.97 L235.81,137.92 L235.26,136.97 L235.20,136.86 L234.63,135.81 L234.08,134.75 L233.54,133.70 L233.27,133.13 L233.04,132.65 L232.55,131.59 L232.09,130.54 L231.64,129.48 L231.27,128.59 L231.21,128.43 L230.81,127.38 L230.43,126.32 L230.06,125.27 L229.71,124.21 L229.37,123.16 L229.28,122.85 L229.06,122.11 L228.77,121.05 L228.50,120.00 L228.24,118.94 L228.00,117.89 L227.77,116.83 L227.56,115.78 L227.37,114.73 L227.29,114.23" style="stroke-width: 2; stroke: rgb(74, 144, 226); stroke-opacity: 1;"/><path d=" M233.27,263.74 L233.17,263.34 L232.92,262.29 L232.70,261.24 L232.50,260.18 L232.33,259.13 L232.18,258.07 L232.06,257.02 L231.96,255.97 L231.89,254.91 L231.84,253.86 L231.81,252.80 L231.81,251.75 L231.84,250.70 L231.89,249.64 L231.96,248.59 L232.06,247.53 L232.18,246.48 L232.33,245.43 L232.50,244.37 L232.70,243.32 L232.92,242.26 L233.16,241.21 L233.27,240.80 L233.44,240.16 L233.75,239.10 L234.08,238.05 L234.44,236.99 L234.82,235.94 L235.23,234.89 L235.26,234.82 L235.69,233.83 L236.17,232.78 L236.69,231.72 L237.22,230.67 L237.25,230.61 L237.81,229.62 L238.44,228.56 L239.09,227.51 L239.25,227.26 L239.79,226.45 L240.54,225.40 L241.24,224.44 L241.31,224.35 L242.16,223.29 L243.04,222.24 L243.23,222.02 L244.00,221.18 L245.00,220.13 L245.23,219.89 L246.08,219.08 L247.21,218.02 L247.22,218.02 L248.46,216.97 L249.21,216.35 L249.79,215.91 L251.21,214.86 L251.21,214.86 L252.79,213.81 L253.20,213.54 L254.51,212.75 L255.19,212.35 L256.42,211.70 L257.19,211.30 L258.58,210.64 L259.18,210.37 L261.06,209.59 L261.17,209.55 L263.17,208.83 L264.13,208.54 L265.16,208.22 L267.15,207.71 L268.23,207.48 L269.15,207.29 L271.14,206.96 L273.13,206.73 L275.13,206.57 L277.12,206.51 L279.11,206.53 L281.11,206.65 L283.10,206.85 L285.09,207.13 L286.94,207.48 L287.09,207.51 L289.08,207.98 L291.04,208.54 L291.07,208.55 L293.07,209.22 L294.05,209.59 L295.06,209.99 L296.56,210.64 L297.05,210.87 L298.72,211.70 L299.05,211.86 L300.63,212.75 L301.04,212.99 L302.34,213.81 L303.03,214.25 L303.91,214.86 L305.03,215.66 L305.35,215.91 L306.68,216.97 L307.02,217.25 L307.90,218.02 L309.01,219.02 L309.07,219.08 L310.13,220.13 L311.01,221.03 L311.15,221.18 L312.08,222.24 L312.99,223.29 L313.00,223.31 L313.81,224.35 L314.60,225.40 L314.99,225.94 L315.35,226.45 L316.04,227.51 L316.70,228.56 L316.99,229.03 L317.32,229.62 L317.90,230.67 L318.45,231.72 L318.97,232.78 L318.98,232.80 L319.44,233.83 L319.89,234.89 L320.31,235.94 L320.70,236.99 L320.97,237.78 L321.06,238.05 L321.39,239.10 L321.69,240.16 L321.96,241.21 L322.21,242.26 L322.44,243.32 L322.64,244.37 L322.81,245.43 L322.96,246.48 L322.97,246.51 L323.08,247.53 L323.18,248.59 L323.25,249.64 L323.30,250.70 L323.32,251.75 L323.32,252.80 L323.30,253.86 L323.25,254.91 L323.18,255.97 L323.08,257.02 L322.97,258.03 L322.96,258.07 L322.81,259.13 L322.64,260.18 L322.44,261.24 L322.21,262.29 L321.96,263.34 L321.68,264.40 L321.38,265.45 L321.06,266.51 L320.97,266.76 L320.70,267.56 L320.30,268.61 L319.88,269.67 L319.44,270.72 L318.98,271.75 L318.97,271.78 L318.44,272.83 L317.89,273.89 L317.32,274.94 L316.99,275.51 L316.70,275.99 L316.03,277.05 L315.34,278.10 L314.99,278.60 L314.59,279.16 L313.80,280.21 L313.00,281.23 L312.98,281.26 L312.07,282.32 L311.14,283.37 L311.01,283.51 L310.12,284.43 L309.05,285.48 L309.01,285.52 L307.89,286.53 L307.02,287.29 L306.66,287.59 L305.33,288.64 L305.03,288.88 L303.89,289.70 L303.03,290.29 L302.32,290.75 L301.04,291.55 L300.61,291.80 L299.05,292.68 L298.70,292.86 L297.05,293.68 L296.53,293.91 L295.06,294.56 L294.02,294.97 L293.07,295.33 L291.07,296.00 L290.99,296.02 L289.08,296.56 L287.09,297.03 L286.88,297.07 L285.09,297.41 L283.10,297.70 L281.11,297.90 L279.11,298.01 L277.12,298.03 L275.13,297.97 L273.13,297.82 L271.14,297.58 L269.15,297.25 L268.29,297.07 L267.15,296.83 L265.16,296.32 L264.17,296.02 L263.17,295.71 L261.17,295.00 L261.09,294.97 L259.18,294.18 L258.60,293.91 L257.19,293.24 L256.44,292.86 L255.19,292.19 L254.53,291.80 L253.20,291.01 L252.81,290.75 L251.23,289.70 L251.21,289.68 L249.80,288.64 L249.21,288.19 L248.48,287.59 L247.23,286.53 L247.22,286.53 L246.09,285.48 L245.23,284.65 L245.01,284.43 L244.01,283.37 L243.23,282.53 L243.05,282.32 L242.17,281.26 L241.32,280.21 L241.24,280.10 L240.54,279.16 L239.80,278.10 L239.25,277.29 L239.09,277.05 L238.44,275.99 L237.82,274.94 L237.25,273.93 L237.23,273.89 L236.69,272.83 L236.18,271.78 L235.70,270.72 L235.26,269.72 L235.24,269.67 L234.83,268.61 L234.44,267.56 L234.08,266.51 L233.75,265.45 L233.44,264.40 L233.27,263.74" style="stroke-width: 2; stroke: rgb(74, 144, 226); stroke-opacity: 1;"/><g><circle cx="279.145940259115" cy="95.7593505599989" r="4" style="stroke-width: 3; stroke: rgb(208, 2, 27); stroke-opacity: 1; fill: rgb(157, 40, 192); fill-opacity: 0.15;"/></g><g><circle cx="284.16272881847" cy="248.18763492016052" r="4" style="stroke-width: 3; stroke: rgb(208, 2, 27); stroke-opacity: 1; fill: rgb(214, 67, 102); fill-opacity: 0.15;"/></g><g><circle cx="400.17350891102205" cy="226.03729897873757" r="4" style="stroke-width: 3; stroke: rgb(208, 2, 27); stroke-opacity: 1; fill: rgb(240, 50, 230); fill-opacity: 0.15;"/></g></g></g><g><g class="test-xti" style="font-family: Asana-Math, Asana;"><line x1="16.004332542723688" y1="0" x2="16.004332542723688" y2="4" fill="none" stroke="rgb(50,50,50)" stroke-opacity="1" stroke-width="1"/><line x1="109.41955502848246" y1="0" x2="109.41955502848246" y2="4" fill="none" stroke="rgb(50,50,50)" stroke-opacity="1" stroke-width="1"/><line x1="202.83477751424124" y1="0" x2="202.83477751424124" y2="4" fill="none" stroke="rgb(50,50,50)" stroke-opacity="1" stroke-width="1"/><line x1="296.25" y1="0" x2="296.25" y2="4" fill="none" stroke="rgb(50,50,50)" stroke-opacity="1" stroke-width="1"/><line x1="389.6652224857588" y1="0" x2="389.6652224857588" y2="4" fill="none" stroke="rgb(50,50,50)" stroke-opacity="1" stroke-width="1"/><line x1="483.0804449715176" y1="0" x2="483.0804449715176" y2="4" fill="none" stroke="rgb(50,50,50)" stroke-opacity="1" stroke-width="1"/><line x1="576.4956674572765" y1="0" x2="576.4956674572765" y2="4" fill="none" stroke="rgb(50,50,50)" stroke-opacity="1" stroke-width="1"/></g><g class="test-xti" style="font-family: Asana-Math, Asana;"><line x1="16.004332542723688" y1="318.2083282470703" x2="16.004332542723688" y2="322.2083282470703" fill="none" stroke="rgb(50,50,50)" stroke-opacity="1" stroke-width="1"/><line x1="109.41955502848246" y1="318.2083282470703" x2="109.41955502848246" y2="322.2083282470703" fill="none" stroke="rgb(50,50,50)" stroke-opacity="1" stroke-width="1"/><line x1="202.83477751424124" y1="318.2083282470703" x2="202.83477751424124" y2="322.2083282470703" fill="none" stroke="rgb(50,50,50)" stroke-opacity="1" stroke-width="1"/><line x1="296.25" y1="318.2083282470703" x2="296.25" y2="322.2083282470703" fill="none" stroke="rgb(50,50,50)" stroke-opacity="1" stroke-width="1"/><line x1="389.6652224857588" y1="318.2083282470703" x2="389.6652224857588" y2="322.2083282470703" fill="none" stroke="rgb(50,50,50)" stroke-opacity="1" stroke-width="1"/><line x1="483.0804449715176" y1="318.2083282470703" x2="483.0804449715176" y2="322.2083282470703" fill="none" stroke="rgb(50,50,50)" stroke-opacity="1" stroke-width="1"/><line x1="576.4956674572765" y1="318.2083282470703" x2="576.4956674572765" y2="322.2083282470703" fill="none" stroke="rgb(50,50,50)" stroke-opacity="1" stroke-width="1"/></g></g><g><g class="test-yti" style="font-family: Asana-Math, Asana;"><line x1="11" y1="233.5885319796531" x2="15" y2="233.5885319796531" fill="none" stroke="rgb(50,50,50)" stroke-opacity="1" stroke-width="1"/><line x1="11" y1="140.17330949389432" x2="15" y2="140.17330949389432" fill="none" stroke="rgb(50,50,50)" stroke-opacity="1" stroke-width="1"/><line x1="11" y1="46.75808700813553" x2="15" y2="46.75808700813553" fill="none" stroke="rgb(50,50,50)" stroke-opacity="1" stroke-width="1"/></g><g class="test-yti" style="font-family: Asana-Math, Asana;"><line x1="611" y1="233.5885319796531" x2="615" y2="233.5885319796531" fill="none" stroke="rgb(50,50,50)" stroke-opacity="1" stroke-width="1"/><line x1="611" y1="140.17330949389432" x2="615" y2="140.17330949389432" fill="none" stroke="rgb(50,50,50)" stroke-opacity="1" stroke-width="1"/><line x1="611" y1="46.75808700813553" x2="615" y2="46.75808700813553" fill="none" stroke="rgb(50,50,50)" stroke-opacity="1" stroke-width="1"/></g></g><g class="test-xtl" style="font-family: &quot;Open Sans&quot;, verdana, arial, sans-serif;"><text text-anchor="middle" font-size="11" dominant-baseline="hanging" stroke="none" fill="rgb(50,50,50)" fill-opacity="1" x="12.869332542723688" y="325.2083282470703">-15</text><text text-anchor="middle" font-size="11" dominant-baseline="hanging" stroke="none" fill="rgb(50,50,50)" fill-opacity="1" x="106.28455502848246" y="325.2083282470703">-10</text><text text-anchor="middle" font-size="11" dominant-baseline="hanging" stroke="none" fill="rgb(50,50,50)" fill-opacity="1" x="199.69977751424125" y="325.2083282470703">-5</text><text text-anchor="middle" font-size="11" dominant-baseline="hanging" stroke="none" fill="rgb(50,50,50)" fill-opacity="1" x="296.25" y="325.2083282470703">0</text><text text-anchor="middle" font-size="11" dominant-baseline="hanging" stroke="none" fill="rgb(50,50,50)" fill-opacity="1" x="389.6652224857588" y="325.2083282470703">5</text><text text-anchor="middle" font-size="11" dominant-baseline="hanging" stroke="none" fill="rgb(50,50,50)" fill-opacity="1" x="483.0804449715176" y="325.2083282470703">10</text><text text-anchor="middle" font-size="11" dominant-baseline="hanging" stroke="none" fill="rgb(50,50,50)" fill-opacity="1" x="576.4956674572765" y="325.2083282470703">15</text></g><g class="test-ytl" style="font-family: &quot;Open Sans&quot;, verdana, arial, sans-serif;"><text text-anchor="end" dominant-baseline="middle" font-size="11" stroke="none" fill="rgb(50,50,50)" fill-opacity="1" x="7" y="233.5885319796531">0</text><text text-anchor="end" dominant-baseline="middle" font-size="11" stroke="none" fill="rgb(50,50,50)" fill-opacity="1" x="7" y="140.17330949389432">5</text><text text-anchor="end" dominant-baseline="middle" font-size="11" stroke="none" fill="rgb(50,50,50)" fill-opacity="1" x="7" y="46.75808700813553">10</text></g></g></g></g><g/></g><g/><g/><g/></svg>
        <svg xmlns="http://www.w3.org/2000/svg" xmlns:xlink="http://www.w3.org/1999/xlink" width="660" height="357.3333435058594" style="width:660px;height:357.3333435058594px;font-family:Asana-Math, Asana;background:#FFF;"></svg>
</svg>
