<svg xmlns="http://www.w3.org/2000/svg" xmlns:xlink="http://www.w3.org/1999/xlink" x="0" y="0" width="661.3333740234375" height="301.3333435058594" style="
        width:661.3333740234375px;
        height:301.3333435058594px;
        background: #FFF;
        fill: none;
">
        
        
        <svg xmlns="http://www.w3.org/2000/svg" class="role-diagram-draw-area"><g class="shapes-region" style="stroke: black; fill: none;"><g class="composite-shape" data-amt="diagram/shapes/plot" transform="matrix(1,0,0,1,150.66665649414062,16)"><g><g><g class="test-xgi"><line x1="26.834621880248758" y1="3" x2="26.834621880248758" y2="245.875" fill="none" stroke="#c3c3c3" stroke-width="0.5"/><line x1="79.08815959078025" y1="3" x2="79.08815959078025" y2="245.875" fill="none" stroke="#c3c3c3" stroke-width="0.5"/><line x1="131.34169730131177" y1="3" x2="131.34169730131177" y2="245.875" fill="none" stroke="#c3c3c3" stroke-width="0.5"/><line x1="183.59523501184324" y1="3" x2="183.59523501184324" y2="245.875" fill="none" stroke="#c3c3c3" stroke-width="0.5"/><line x1="235.84877272237472" y1="3" x2="235.84877272237472" y2="245.875" fill="none" stroke="#c3c3c3" stroke-width="0.5"/><line x1="288.1023104329062" y1="3" x2="288.1023104329062" y2="245.875" fill="none" stroke="#c3c3c3" stroke-width="0.5"/><line x1="340.35584814343775" y1="3" x2="340.35584814343775" y2="245.875" fill="none" stroke="#c3c3c3" stroke-width="0.5"/></g><g class="test-ygi"><line x1="14" y1="226.92703183695465" x2="357" y2="226.92703183695465" fill="none" stroke="#c3c3c3" stroke-width="0.5"/><line x1="14" y1="174.67349412642315" x2="357" y2="174.67349412642315" fill="none" stroke="#c3c3c3" stroke-width="0.5"/><line x1="14" y1="122.41995641589166" x2="357" y2="122.41995641589166" fill="none" stroke="#c3c3c3" stroke-width="0.5"/><line x1="14" y1="70.1664187053602" x2="357" y2="70.1664187053602" fill="none" stroke="#c3c3c3" stroke-width="0.5"/><line x1="14" y1="17.912880994828697" x2="357" y2="17.912880994828697" fill="none" stroke="#c3c3c3" stroke-width="0.5"/></g></g><g><rect class="real" x="15" y="4" width="341" height="240.875" style="fill: transparent; stroke: gray;"/><g class="test-plot-expression"><defs><clipPath id="cpnt2zgyz57"><rect x="15" y="4" width="341" height="240.875"/></clipPath></defs><g clip-path="url(#cpnt2zgyz57)"><path d=" M104.32,113.39 L104.26,112.88 L104.14,111.88 L104.03,110.88 L103.93,109.88 L103.84,108.88 L103.77,107.88 L103.70,106.88 L103.65,105.88 L103.60,104.88 L103.57,103.88 L103.55,102.88 L103.54,101.88 L103.54,100.88 L103.56,99.88 L103.58,98.88 L103.62,97.88 L103.66,96.88 L103.72,95.88 L103.79,94.88 L103.87,93.88 L103.96,92.88 L104.06,91.88 L104.17,90.88 L104.29,89.88 L104.32,89.65 L104.43,88.88 L104.58,87.88 L104.73,86.88 L104.90,85.88 L105.09,84.88 L105.28,83.88 L105.47,82.95 L105.48,82.88 L105.70,81.88 L105.93,80.88 L106.17,79.88 L106.42,78.88 L106.61,78.15 L106.68,77.88 L106.96,76.88 L107.25,75.88 L107.55,74.88 L107.75,74.23 L107.87,73.88 L108.19,72.88 L108.53,71.88 L108.89,70.88 L108.90,70.84 L109.25,69.88 L109.63,68.88 L110.03,67.88 L110.04,67.84 L110.43,66.88 L110.86,65.88 L111.18,65.12 L111.29,64.88 L111.74,63.88 L112.21,62.88 L112.33,62.62 L112.69,61.88 L113.18,60.88 L113.47,60.30 L113.69,59.88 L114.22,58.88 L114.61,58.14 L114.76,57.88 L115.32,56.88 L115.76,56.11 L115.89,55.88 L116.49,54.88 L116.90,54.19 L117.10,53.88 L117.73,52.88 L118.04,52.38 L118.37,51.88 L119.04,50.88 L119.19,50.65 L119.72,49.88 L120.33,49.01 L120.43,48.88 L121.15,47.88 L121.47,47.44 L121.90,46.88 L122.62,45.94 L122.67,45.88 L123.46,44.88 L123.76,44.50 L124.27,43.88 L124.90,43.12 L125.11,42.88 L125.97,41.88 L126.05,41.79 L126.86,40.88 L127.19,40.52 L127.78,39.88 L128.33,39.29 L128.73,38.88 L129.48,38.10 L129.70,37.88 L130.62,36.96 L130.70,36.88 L131.74,35.88 L131.76,35.85 L132.81,34.88 L132.91,34.79 L133.92,33.88 L134.05,33.76 L135.06,32.88 L135.19,32.76 L136.24,31.88 L136.34,31.80 L137.47,30.88 L137.48,30.87 L138.62,29.97 L138.74,29.88 L139.77,29.10 L140.06,28.88 L140.91,28.25 L141.44,27.88 L142.05,27.44 L142.87,26.88 L143.20,26.65 L144.34,25.88 L144.35,25.88 L145.48,25.15 L145.91,24.88 L146.63,24.43 L147.54,23.88 L147.77,23.74 L148.91,23.07 L149.26,22.88 L150.06,22.42 L151.06,21.88 L151.20,21.80 L152.34,21.19 L152.97,20.88 L153.49,20.61 L154.63,20.05 L154.99,19.88 L155.77,19.50 L156.92,18.98 L157.15,18.88 L158.06,18.48 L159.20,17.99 L159.48,17.88 L160.35,17.52 L161.49,17.07 L162.01,16.88 L162.63,16.64 L163.78,16.23 L164.78,15.88 L164.92,15.83 L166.06,15.45 L167.21,15.08 L167.89,14.88 L168.35,14.74 L169.49,14.41 L170.64,14.09 L171.47,13.88 L171.78,13.79 L172.92,13.51 L174.07,13.25 L175.21,13.00 L175.79,12.88 L176.35,12.76 L177.50,12.54 L178.64,12.33 L179.78,12.14 L180.93,11.97 L181.60,11.88 L182.07,11.81 L183.21,11.66 L184.36,11.53 L185.50,11.42 L186.64,11.32 L187.79,11.23 L188.93,11.16 L190.07,11.10 L191.22,11.06 L192.36,11.03 L193.50,11.02 L194.65,11.02 L195.79,11.03 L196.93,11.06 L198.08,11.10 L199.22,11.16 L200.36,11.23 L201.51,11.32 L202.65,11.42 L203.79,11.54 L204.94,11.67 L206.08,11.82 L206.50,11.88 L207.22,11.98 L208.37,12.15 L209.51,12.35 L210.65,12.55 L211.80,12.77 L212.30,12.88 L212.94,13.01 L214.08,13.26 L215.23,13.53 L216.37,13.81 L216.62,13.88 L217.51,14.11 L218.66,14.42 L219.80,14.75 L220.20,14.88 L220.94,15.10 L222.09,15.47 L223.23,15.85 L223.31,15.88 L224.37,16.25 L225.52,16.66 L226.08,16.88 L226.66,17.09 L227.80,17.55 L228.61,17.88 L228.95,18.01 L230.09,18.50 L230.94,18.88 L231.23,19.01 L232.38,19.53 L233.10,19.88 L233.52,20.08 L234.66,20.64 L235.13,20.88 L235.81,21.22 L236.95,21.83 L237.04,21.88 L238.09,22.46 L238.84,22.88 L239.24,23.10 L240.38,23.77 L240.55,23.88 L241.52,24.47 L242.18,24.88 L242.67,25.18 L243.74,25.88 L243.81,25.92 L244.95,26.69 L245.23,26.88 L246.10,27.48 L246.65,27.88 L247.24,28.30 L248.03,28.88 L248.38,29.14 L249.35,29.88 L249.53,30.01 L250.62,30.88 L250.67,30.91 L251.81,31.85 L251.85,31.88 L252.96,32.81 L253.03,32.88 L254.10,33.81 L254.18,33.88 L255.24,34.84 L255.28,34.88 L256.35,35.88 L256.39,35.91 L257.39,36.88 L257.53,37.01 L258.39,37.88 L258.67,38.16 L259.37,38.88 L259.82,39.35 L260.31,39.88 L260.96,40.58 L261.23,40.88 L262.10,41.86 L262.12,41.88 L262.98,42.88 L263.25,43.19 L263.82,43.88 L264.39,44.57 L264.63,44.88 L265.43,45.88 L265.53,46.01 L266.19,46.88 L266.68,47.52 L266.94,47.88 L267.67,48.88 L267.82,49.09 L268.37,49.88 L268.96,50.74 L269.06,50.88 L269.72,51.88 L270.11,52.47 L270.37,52.88 L271.00,53.88 L271.25,54.29 L271.60,54.88 L272.20,55.88 L272.39,56.21 L272.77,56.88 L273.33,57.88 L273.54,58.25 L273.87,58.88 L274.40,59.88 L274.68,60.42 L274.91,60.88 L275.41,61.88 L275.82,62.74 L275.89,62.88 L276.35,63.88 L276.80,64.88 L276.97,65.25 L277.24,65.88 L277.66,66.88 L278.07,67.88 L278.11,67.99 L278.46,68.88 L278.84,69.88 L279.21,70.88 L279.25,71.01 L279.56,71.88 L279.90,72.88 L280.23,73.88 L280.40,74.42 L280.54,74.88 L280.84,75.88 L281.13,76.88 L281.41,77.88 L281.54,78.37 L281.67,78.88 L281.92,79.88 L282.16,80.88 L282.39,81.88 L282.61,82.88 L282.68,83.23 L282.81,83.88 L283.01,84.88 L283.19,85.88 L283.36,86.88 L283.52,87.88 L283.66,88.88 L283.80,89.88 L283.83,90.09 L283.92,90.88 L284.04,91.88 L284.14,92.88 L284.23,93.88 L284.31,94.88 L284.37,95.88 L284.43,96.88 L284.48,97.88 L284.51,98.88 L284.54,99.88 L284.55,100.88 L284.55,101.88 L284.54,102.88 L284.52,103.88 L284.49,104.88 L284.45,105.88 L284.39,106.88 L284.33,107.88 L284.25,108.88 L284.16,109.88 L284.07,110.88 L283.96,111.88 L283.84,112.88 L283.83,112.95 L283.70,113.88 L283.56,114.88 L283.40,115.88 L283.24,116.88 L283.06,117.88 L282.87,118.88 L282.68,119.81 L282.67,119.88 L282.46,120.88 L282.23,121.88 L281.99,122.88 L281.75,123.88 L281.54,124.67 L281.49,124.88 L281.21,125.88 L280.93,126.88 L280.63,127.88 L280.40,128.62 L280.32,128.88 L279.99,129.88 L279.66,130.88 L279.31,131.88 L279.25,132.03 L278.94,132.88 L278.57,133.88 L278.18,134.88 L278.11,135.05 L277.78,135.88 L277.36,136.88 L276.97,137.79 L276.93,137.88 L276.48,138.88 L276.02,139.88 L275.82,140.29 L275.55,140.88 L275.05,141.88 L274.68,142.62 L274.55,142.88 L274.03,143.88 L273.54,144.79 L273.49,144.88 L272.93,145.88 L272.39,146.83 L272.37,146.88 L271.78,147.88 L271.25,148.75 L271.17,148.88 L270.55,149.88 L270.11,150.57 L269.91,150.88 L269.25,151.88 L268.96,152.30 L268.57,152.88 L267.87,153.88 L267.82,153.95 L267.15,154.88 L266.68,155.52 L266.41,155.88 L265.65,156.88 L265.53,157.02 L264.86,157.88 L264.39,158.46 L264.05,158.88 L263.25,159.85 L263.23,159.88 L262.37,160.88 L262.10,161.18 L261.49,161.88 L260.96,162.46 L260.58,162.88 L259.82,163.69 L259.64,163.88 L258.68,164.88 L258.67,164.88 L257.68,165.88 L257.53,166.02 L256.65,166.88 L256.39,167.13 L255.59,167.88 L255.24,168.20 L254.50,168.88 L254.10,169.23 L253.36,169.88 L252.96,170.23 L252.19,170.88 L251.81,171.19 L250.98,171.88 L250.67,172.12 L249.72,172.88 L249.53,173.02 L248.41,173.88 L248.38,173.90 L247.24,174.74 L247.05,174.88 L246.10,175.56 L245.64,175.88 L244.95,176.35 L244.17,176.88 L243.81,177.11 L242.67,177.86 L242.64,177.88 L241.52,178.57 L241.02,178.88 L240.38,179.26 L239.34,179.88 L239.24,179.93 L238.09,180.58 L237.56,180.88 L236.95,181.21 L235.81,181.81 L235.69,181.88 L234.66,182.40 L233.70,182.88 L233.52,182.96 L232.38,183.51 L231.58,183.88 L231.23,184.03 L230.09,184.54 L229.30,184.88 L228.95,185.02 L227.80,185.49 L226.83,185.88 L226.66,185.94 L225.52,186.38 L224.37,186.79 L224.14,186.88 L223.23,187.19 L222.09,187.57 L221.13,187.88 L220.94,187.93 L219.80,188.28 L218.66,188.61 L217.71,188.88 L217.51,188.93 L216.37,189.23 L215.23,189.51 L214.08,189.78 L213.65,189.88 L212.94,190.03 L211.80,190.27 L210.65,190.49 L209.51,190.69 L208.42,190.88 L208.37,190.88 L207.22,191.06 L206.08,191.22 L204.94,191.37 L203.79,191.50 L202.65,191.61 L201.51,191.72 L200.36,191.80 L199.24,191.88 L199.22,191.88 L198.08,191.93 L196.93,191.98 L195.79,192.01 L194.65,192.02 L193.50,192.02 L192.36,192.01 L191.22,191.98 L190.07,191.94 L188.93,191.88 L188.86,191.88 L187.79,191.81 L186.64,191.72 L185.50,191.62 L184.36,191.50 L183.21,191.37 L182.07,191.23 L180.93,191.07 L179.78,190.89 L179.67,190.88 L178.64,190.70 L177.50,190.50 L176.35,190.28 L175.21,190.04 L174.45,189.88 L174.07,189.79 L172.92,189.52 L171.78,189.24 L170.64,188.94 L170.38,188.88 L169.49,188.63 L168.35,188.30 L167.21,187.95 L166.96,187.88 L166.06,187.59 L164.92,187.21 L163.96,186.88 L163.78,186.81 L162.63,186.40 L161.49,185.97 L161.26,185.88 L160.35,185.52 L159.20,185.05 L158.79,184.88 L158.06,184.56 L156.92,184.06 L156.52,183.88 L155.77,183.53 L154.63,182.99 L154.39,182.88 L153.49,182.43 L152.40,181.88 L152.34,181.84 L151.20,181.24 L150.53,180.88 L150.06,180.61 L148.91,179.97 L148.75,179.88 L147.77,179.30 L147.07,178.88 L146.63,178.61 L145.48,177.89 L145.46,177.88 L144.34,177.15 L143.92,176.88 L143.20,176.39 L142.45,175.88 L142.05,175.60 L141.04,174.88 L140.91,174.78 L139.77,173.94 L139.68,173.88 L138.62,173.07 L138.37,172.88 L137.48,172.17 L137.12,171.88 L136.34,171.24 L135.90,170.88 L135.19,170.27 L134.73,169.88 L134.05,169.28 L133.60,168.88 L132.91,168.25 L132.50,167.88 L131.76,167.18 L131.44,166.88 L130.62,166.08 L130.41,165.88 L129.48,164.94 L129.41,164.88 L128.45,163.88 L128.33,163.75 L127.51,162.88 L127.19,162.52 L126.61,161.88 L126.05,161.24 L125.72,160.88 L124.90,159.92 L124.87,159.88 L124.04,158.88 L123.76,158.54 L123.23,157.88 L122.62,157.10 L122.44,156.88 L121.68,155.88 L121.47,155.60 L120.94,154.88 L120.33,154.03 L120.22,153.88 L119.52,152.88 L119.19,152.38 L118.84,151.88 L118.18,150.88 L118.04,150.66 L117.54,149.88 L116.92,148.88 L116.90,148.84 L116.32,147.88 L115.76,146.93 L115.73,146.88 L115.16,145.88 L114.61,144.90 L114.60,144.88 L114.07,143.88 L113.54,142.88 L113.47,142.73 L113.04,141.88 L112.55,140.88 L112.33,140.42 L112.07,139.88 L111.61,138.88 L111.18,137.92 L111.16,137.88 L110.73,136.88 L110.32,135.88 L110.04,135.19 L109.91,134.88 L109.52,133.88 L109.15,132.88 L108.90,132.19 L108.78,131.88 L108.44,130.88 L108.10,129.88 L107.77,128.88 L107.75,128.81 L107.46,127.88 L107.17,126.88 L106.88,125.88 L106.61,124.89 L106.61,124.88 L106.35,123.88 L106.10,122.88 L105.86,121.88 L105.64,120.88 L105.47,120.09 L105.42,119.88 L105.22,118.88 L105.03,117.88 L104.85,116.88 L104.69,115.88 L104.53,114.88 L104.39,113.88 L104.32,113.39" style="stroke-width: 2; stroke: rgb(65, 117, 5); stroke-opacity: 1;"/><path d=" M89.46,142.57 L89.39,141.88 L89.30,140.88 L89.22,139.88 L89.15,138.88 L89.09,137.88 L89.05,136.88 L89.01,135.88 L88.98,134.88 L88.97,133.88 L88.96,132.88 L88.97,131.88 L88.98,130.88 L89.01,129.88 L89.05,128.88 L89.09,127.88 L89.15,126.88 L89.22,125.88 L89.30,124.88 L89.39,123.88 L89.46,123.17 L89.49,122.88 L89.60,121.88 L89.72,120.88 L89.86,119.88 L90.00,118.88 L90.16,117.88 L90.32,116.88 L90.50,115.88 L90.60,115.32 L90.69,114.88 L90.89,113.88 L91.10,112.88 L91.32,111.88 L91.55,110.88 L91.75,110.08 L91.80,109.88 L92.05,108.88 L92.32,107.88 L92.60,106.88 L92.89,105.88 L92.89,105.88 L93.20,104.88 L93.51,103.88 L93.84,102.88 L94.03,102.31 L94.18,101.88 L94.53,100.88 L94.90,99.88 L95.18,99.14 L95.28,98.88 L95.67,97.88 L96.07,96.88 L96.32,96.28 L96.49,95.88 L96.92,94.88 L97.37,93.88 L97.46,93.67 L97.83,92.88 L98.30,91.88 L98.61,91.25 L98.79,90.88 L99.29,89.88 L99.75,88.99 L99.81,88.88 L100.34,87.88 L100.89,86.88 L100.89,86.87 L101.46,85.88 L102.03,84.88 L102.04,84.87 L102.63,83.88 L103.18,82.98 L103.24,82.88 L103.88,81.88 L104.32,81.18 L104.53,80.88 L105.19,79.88 L105.47,79.47 L105.88,78.88 L106.58,77.88 L106.61,77.83 L107.31,76.88 L107.75,76.27 L108.05,75.88 L108.81,74.88 L108.90,74.77 L109.60,73.88 L110.04,73.33 L110.41,72.88 L111.18,71.94 L111.24,71.88 L112.10,70.88 L112.33,70.61 L112.98,69.88 L113.47,69.33 L113.88,68.88 L114.61,68.09 L114.81,67.88 L115.76,66.89 L115.77,66.88 L116.76,65.88 L116.90,65.73 L117.78,64.88 L118.04,64.62 L118.83,63.88 L119.19,63.54 L119.91,62.88 L120.33,62.49 L121.02,61.88 L121.47,61.48 L122.18,60.88 L122.62,60.50 L123.37,59.88 L123.76,59.55 L124.60,58.88 L124.90,58.64 L125.88,57.88 L126.05,57.74 L127.19,56.88 L127.20,56.88 L128.33,56.05 L128.57,55.88 L129.48,55.24 L130.00,54.88 L130.62,54.45 L131.49,53.88 L131.76,53.69 L132.91,52.96 L133.03,52.88 L134.05,52.24 L134.65,51.88 L135.19,51.55 L136.34,50.88 L136.35,50.88 L137.48,50.23 L138.13,49.88 L138.62,49.61 L139.77,49.00 L140.00,48.88 L140.91,48.41 L141.98,47.88 L142.05,47.84 L143.20,47.29 L144.09,46.88 L144.34,46.76 L145.48,46.25 L146.35,45.88 L146.63,45.76 L147.77,45.28 L148.78,44.88 L148.91,44.82 L150.06,44.38 L151.20,43.95 L151.42,43.88 L152.34,43.55 L153.49,43.15 L154.33,42.88 L154.63,42.78 L155.77,42.42 L156.92,42.07 L157.61,41.88 L158.06,41.75 L159.20,41.43 L160.35,41.14 L161.40,40.88 L161.49,40.85 L162.63,40.59 L163.78,40.34 L164.92,40.10 L166.06,39.88 L166.06,39.87 L167.21,39.67 L168.35,39.47 L169.49,39.29 L170.64,39.13 L171.78,38.98 L172.62,38.88 L172.92,38.84 L174.07,38.72 L175.21,38.61 L176.35,38.51 L177.50,38.43 L178.64,38.37 L179.78,38.31 L180.93,38.27 L182.07,38.25 L183.21,38.24 L184.36,38.24 L185.50,38.26 L186.64,38.29 L187.79,38.33 L188.93,38.39 L190.07,38.46 L191.22,38.54 L192.36,38.64 L193.50,38.76 L194.58,38.88 L194.65,38.88 L195.79,39.03 L196.93,39.18 L198.08,39.35 L199.22,39.54 L200.36,39.73 L201.13,39.88 L201.51,39.95 L202.65,40.17 L203.79,40.42 L204.94,40.67 L205.78,40.88 L206.08,40.95 L207.22,41.23 L208.37,41.54 L209.51,41.85 L209.59,41.88 L210.65,42.19 L211.80,42.54 L212.86,42.88 L212.94,42.90 L214.08,43.28 L215.23,43.68 L215.77,43.88 L216.37,44.09 L217.51,44.52 L218.41,44.88 L218.66,44.97 L219.80,45.44 L220.84,45.88 L220.94,45.92 L222.09,46.42 L223.10,46.88 L223.23,46.94 L224.37,47.47 L225.20,47.88 L225.52,48.03 L226.66,48.60 L227.19,48.88 L227.80,49.20 L228.95,49.81 L229.06,49.88 L230.09,50.45 L230.84,50.88 L231.23,51.10 L232.38,51.78 L232.54,51.88 L233.52,52.48 L234.15,52.88 L234.66,53.20 L235.70,53.88 L235.81,53.94 L236.95,54.71 L237.19,54.88 L238.09,55.50 L238.61,55.88 L239.24,56.32 L239.99,56.88 L240.38,57.17 L241.31,57.88 L241.52,58.04 L242.59,58.88 L242.67,58.94 L243.81,59.86 L243.82,59.88 L244.95,60.82 L245.01,60.88 L246.10,61.81 L246.17,61.88 L247.24,62.83 L247.28,62.88 L248.37,63.88 L248.38,63.89 L249.42,64.88 L249.53,64.98 L250.43,65.88 L250.67,66.11 L251.42,66.88 L251.81,67.28 L252.38,67.88 L252.96,68.49 L253.31,68.88 L254.10,69.75 L254.22,69.88 L255.09,70.88 L255.24,71.05 L255.95,71.88 L256.39,72.40 L256.78,72.88 L257.53,73.80 L257.59,73.88 L258.38,74.88 L258.67,75.26 L259.14,75.88 L259.82,76.78 L259.89,76.88 L260.61,77.88 L260.96,78.37 L261.31,78.88 L262.00,79.88 L262.10,80.03 L262.66,80.88 L263.25,81.77 L263.31,81.88 L263.94,82.88 L264.39,83.60 L264.56,83.88 L265.15,84.88 L265.53,85.52 L265.74,85.88 L266.30,86.88 L266.68,87.56 L266.85,87.88 L267.38,88.88 L267.82,89.72 L267.90,89.88 L268.40,90.88 L268.89,91.88 L268.96,92.03 L269.36,92.88 L269.82,93.88 L270.11,94.51 L270.27,94.88 L270.70,95.88 L271.12,96.88 L271.25,97.20 L271.52,97.88 L271.91,98.88 L272.29,99.88 L272.39,100.15 L272.66,100.88 L273.01,101.88 L273.35,102.88 L273.54,103.44 L273.68,103.88 L273.99,104.88 L274.30,105.88 L274.59,106.88 L274.68,107.20 L274.87,107.88 L275.14,108.88 L275.39,109.88 L275.64,110.88 L275.82,111.67 L275.87,111.88 L276.09,112.88 L276.30,113.88 L276.50,114.88 L276.69,115.88 L276.87,116.88 L276.97,117.46 L277.03,117.88 L277.19,118.88 L277.33,119.88 L277.47,120.88 L277.59,121.88 L277.70,122.88 L277.80,123.88 L277.89,124.88 L277.97,125.88 L278.04,126.88 L278.10,127.88 L278.11,128.12 L278.15,128.88 L278.18,129.88 L278.21,130.88 L278.22,131.88 L278.23,132.88 L278.22,133.88 L278.21,134.88 L278.18,135.88 L278.15,136.88 L278.11,137.62 L278.10,137.88 L278.04,138.88 L277.97,139.88 L277.89,140.88 L277.80,141.88 L277.70,142.88 L277.59,143.88 L277.46,144.88 L277.33,145.88 L277.19,146.88 L277.03,147.88 L276.97,148.28 L276.87,148.88 L276.69,149.88 L276.50,150.88 L276.30,151.88 L276.09,152.88 L275.87,153.88 L275.82,154.08 L275.64,154.88 L275.39,155.88 L275.13,156.88 L274.87,157.88 L274.68,158.54 L274.59,158.88 L274.29,159.88 L273.99,160.88 L273.68,161.88 L273.54,162.30 L273.35,162.88 L273.01,163.88 L272.65,164.88 L272.39,165.59 L272.29,165.88 L271.91,166.88 L271.52,167.88 L271.25,168.54 L271.11,168.88 L270.69,169.88 L270.26,170.88 L270.11,171.23 L269.82,171.88 L269.36,172.88 L268.96,173.71 L268.89,173.88 L268.40,174.88 L267.89,175.88 L267.82,176.02 L267.38,176.88 L266.84,177.88 L266.68,178.18 L266.29,178.88 L265.73,179.88 L265.53,180.22 L265.15,180.88 L264.55,181.88 L264.39,182.14 L263.94,182.88 L263.31,183.88 L263.25,183.97 L262.66,184.88 L262.10,185.71 L261.99,185.88 L261.31,186.88 L260.96,187.37 L260.60,187.88 L259.88,188.88 L259.82,188.96 L259.13,189.88 L258.67,190.48 L258.37,190.88 L257.58,191.88 L257.53,191.94 L256.77,192.88 L256.39,193.34 L255.94,193.88 L255.24,194.69 L255.09,194.88 L254.21,195.88 L254.10,196.00 L253.30,196.88 L252.96,197.25 L252.37,197.88 L251.81,198.46 L251.41,198.88 L250.67,199.63 L250.42,199.88 L249.53,200.76 L249.41,200.88 L248.38,201.85 L248.36,201.88 L247.28,202.88 L247.24,202.91 L246.16,203.88 L246.10,203.93 L245.00,204.88 L244.95,204.92 L243.81,205.88 L243.81,205.88 L242.67,206.81 L242.58,206.88 L241.52,207.70 L241.30,207.88 L240.38,208.57 L239.98,208.88 L239.24,209.42 L238.60,209.88 L238.09,210.24 L237.18,210.88 L236.95,211.03 L235.81,211.80 L235.69,211.88 L234.66,212.54 L234.14,212.88 L233.52,213.26 L232.52,213.88 L232.38,213.96 L231.23,214.64 L230.83,214.88 L230.09,215.30 L229.05,215.88 L228.95,215.93 L227.80,216.54 L227.17,216.88 L226.66,217.14 L225.52,217.71 L225.19,217.88 L224.37,218.27 L223.23,218.81 L223.08,218.88 L222.09,219.32 L220.94,219.82 L220.82,219.88 L219.80,220.31 L218.66,220.77 L218.39,220.88 L217.51,221.22 L216.37,221.65 L215.75,221.88 L215.23,222.06 L214.08,222.46 L212.94,222.84 L212.83,222.88 L211.80,223.20 L210.65,223.55 L209.56,223.88 L209.51,223.89 L208.37,224.21 L207.22,224.51 L206.08,224.80 L205.75,224.88 L204.94,225.07 L203.79,225.32 L202.65,225.57 L201.51,225.79 L201.08,225.88 L200.36,226.01 L199.22,226.21 L198.08,226.39 L196.93,226.56 L195.79,226.72 L194.65,226.86 L194.50,226.88 L193.50,226.99 L192.36,227.10 L191.22,227.20 L190.07,227.28 L188.93,227.35 L187.79,227.41 L186.64,227.46 L185.50,227.49 L184.36,227.50 L183.21,227.50 L182.07,227.49 L180.93,227.47 L179.78,227.43 L178.64,227.37 L177.50,227.31 L176.35,227.23 L175.21,227.13 L174.07,227.02 L172.92,226.90 L172.70,226.88 L171.78,226.76 L170.64,226.61 L169.49,226.45 L168.35,226.27 L167.21,226.08 L166.10,225.88 L166.06,225.87 L164.92,225.64 L163.78,225.41 L162.63,225.15 L161.49,224.89 L161.44,224.88 L160.35,224.60 L159.20,224.31 L158.06,224.00 L157.64,223.88 L156.92,223.67 L155.77,223.32 L154.63,222.96 L154.36,222.88 L153.49,222.59 L152.34,222.20 L151.44,221.88 L151.20,221.79 L150.06,221.36 L148.91,220.92 L148.80,220.88 L147.77,220.46 L146.63,219.99 L146.37,219.88 L145.48,219.49 L144.34,218.98 L144.11,218.88 L143.20,218.45 L142.05,217.90 L142.00,217.88 L140.91,217.33 L140.02,216.88 L139.77,216.74 L138.62,216.14 L138.14,215.88 L137.48,215.51 L136.36,214.88 L136.34,214.86 L135.19,214.19 L134.67,213.88 L134.05,213.50 L133.05,212.88 L132.91,212.79 L131.76,212.05 L131.50,211.88 L130.62,211.29 L130.02,210.88 L129.48,210.50 L128.59,209.88 L128.33,209.69 L127.21,208.88 L127.19,208.86 L126.05,208.00 L125.89,207.88 L124.90,207.11 L124.61,206.88 L123.76,206.19 L123.38,205.88 L122.62,205.24 L122.19,204.88 L121.47,204.26 L121.03,203.88 L120.33,203.25 L119.92,202.88 L119.19,202.20 L118.83,201.88 L118.04,201.12 L117.78,200.88 L116.90,200.01 L116.77,199.88 L115.78,198.88 L115.76,198.85 L114.82,197.88 L114.61,197.66 L113.89,196.88 L113.47,196.42 L112.98,195.88 L112.33,195.13 L112.10,194.88 L111.25,193.88 L111.18,193.80 L110.42,192.88 L110.04,192.41 L109.61,191.88 L108.90,190.97 L108.82,190.88 L108.06,189.88 L107.75,189.47 L107.31,188.88 L106.61,187.91 L106.59,187.88 L105.88,186.88 L105.47,186.27 L105.20,185.88 L104.53,184.88 L104.32,184.56 L103.88,183.88 L103.25,182.88 L103.18,182.76 L102.64,181.88 L102.04,180.88 L102.04,180.87 L101.46,179.88 L100.89,178.88 L100.89,178.87 L100.35,177.88 L99.81,176.88 L99.75,176.75 L99.30,175.88 L98.79,174.88 L98.61,174.49 L98.31,173.88 L97.83,172.88 L97.46,172.07 L97.37,171.88 L96.93,170.88 L96.50,169.88 L96.32,169.46 L96.08,168.88 L95.67,167.88 L95.28,166.88 L95.18,166.60 L94.90,165.88 L94.54,164.88 L94.18,163.88 L94.03,163.44 L93.84,162.88 L93.52,161.88 L93.20,160.88 L92.89,159.88 L92.89,159.86 L92.60,158.88 L92.32,157.88 L92.06,156.88 L91.80,155.88 L91.75,155.66 L91.55,154.88 L91.32,153.88 L91.10,152.88 L90.89,151.88 L90.69,150.88 L90.60,150.42 L90.50,149.88 L90.32,148.88 L90.16,147.88 L90.00,146.88 L89.86,145.88 L89.73,144.88 L89.60,143.88 L89.49,142.88 L89.46,142.57" style="stroke-width: 2; stroke: rgb(65, 117, 5); stroke-opacity: 1;"/><path d=" M180.93,87.15 L180.89,86.88 L180.76,85.88 L180.65,84.88 L180.57,83.88 L180.51,82.88 L180.47,81.88 L180.45,80.88 L180.46,79.88 L180.49,78.88 L180.53,77.88 L180.61,76.88 L180.70,75.88 L180.82,74.88 L180.93,74.09 L180.96,73.88 L181.12,72.88 L181.31,71.88 L181.52,70.88 L181.75,69.88 L182.01,68.88 L182.07,68.66 L182.29,67.88 L182.60,66.88 L182.94,65.88 L183.21,65.10 L183.30,64.88 L183.69,63.88 L184.10,62.88 L184.36,62.29 L184.54,61.88 L185.02,60.88 L185.50,59.91 L185.52,59.88 L186.06,58.88 L186.63,57.88 L186.64,57.85 L187.23,56.88 L187.79,56.00 L187.87,55.88 L188.55,54.88 L188.93,54.34 L189.27,53.88 L190.03,52.88 L190.07,52.82 L190.84,51.88 L191.22,51.43 L191.70,50.88 L192.36,50.14 L192.61,49.88 L193.50,48.94 L193.57,48.88 L194.60,47.88 L194.65,47.83 L195.70,46.88 L195.79,46.80 L196.88,45.88 L196.93,45.83 L198.08,44.92 L198.14,44.88 L199.22,44.08 L199.51,43.88 L200.36,43.29 L200.99,42.88 L201.51,42.54 L202.61,41.88 L202.65,41.85 L203.79,41.20 L204.40,40.88 L204.94,40.60 L206.08,40.03 L206.42,39.88 L207.22,39.51 L208.37,39.02 L208.73,38.88 L209.51,38.57 L210.65,38.16 L211.49,37.88 L211.80,37.78 L212.94,37.43 L214.08,37.12 L215.05,36.88 L215.23,36.83 L216.37,36.59 L217.51,36.37 L218.66,36.18 L219.80,36.02 L220.94,35.89 L221.10,35.88 L222.09,35.79 L223.23,35.72 L224.37,35.68 L225.52,35.67 L226.66,35.69 L227.80,35.73 L228.95,35.81 L229.68,35.88 L230.09,35.91 L231.23,36.05 L232.38,36.21 L233.52,36.41 L234.66,36.63 L235.75,36.88 L235.81,36.89 L236.95,37.18 L238.09,37.50 L239.24,37.85 L239.31,37.88 L240.38,38.24 L241.52,38.66 L242.07,38.88 L242.67,39.12 L243.81,39.61 L244.38,39.88 L244.95,40.15 L246.10,40.72 L246.39,40.88 L247.24,41.33 L248.19,41.88 L248.38,41.99 L249.53,42.69 L249.81,42.88 L250.67,43.45 L251.29,43.88 L251.81,44.25 L252.65,44.88 L252.96,45.11 L253.92,45.88 L254.10,46.03 L255.09,46.88 L255.24,47.01 L256.19,47.88 L256.39,48.06 L257.22,48.88 L257.53,49.19 L258.19,49.88 L258.67,50.40 L259.10,50.88 L259.82,51.71 L259.96,51.88 L260.76,52.88 L260.96,53.13 L261.52,53.88 L262.10,54.67 L262.25,54.88 L262.92,55.88 L263.25,56.37 L263.56,56.88 L264.17,57.88 L264.39,58.26 L264.74,58.88 L265.27,59.88 L265.53,60.38 L265.78,60.88 L266.25,61.88 L266.68,62.83 L266.70,62.88 L267.11,63.88 L267.50,64.88 L267.82,65.76 L267.86,65.88 L268.19,66.88 L268.50,67.88 L268.79,68.88 L268.96,69.56 L269.04,69.88 L269.28,70.88 L269.49,71.88 L269.67,72.88 L269.84,73.88 L269.98,74.88 L270.10,75.88 L270.11,75.97 L270.19,76.88 L270.26,77.88 L270.31,78.88 L270.34,79.88 L270.35,80.88 L270.33,81.88 L270.29,82.88 L270.23,83.88 L270.15,84.88 L270.11,85.25 L270.04,85.88 L269.91,86.88 L269.76,87.88 L269.58,88.88 L269.38,89.88 L269.16,90.88 L268.96,91.68 L268.92,91.88 L268.64,92.88 L268.34,93.88 L268.02,94.88 L267.82,95.47 L267.68,95.88 L267.30,96.88 L266.90,97.88 L266.68,98.40 L266.47,98.88 L266.01,99.88 L265.53,100.86 L265.52,100.88 L265.00,101.88 L264.45,102.88 L264.39,102.98 L263.86,103.88 L263.25,104.87 L263.24,104.88 L262.58,105.88 L262.10,106.56 L261.88,106.88 L261.14,107.88 L260.96,108.11 L260.35,108.88 L259.82,109.52 L259.52,109.88 L258.67,110.84 L258.64,110.88 L257.70,111.88 L257.53,112.05 L256.70,112.88 L256.39,113.18 L255.63,113.88 L255.24,114.23 L254.49,114.88 L254.10,115.21 L253.28,115.88 L252.96,116.13 L251.96,116.88 L251.81,116.99 L250.67,117.79 L250.54,117.88 L249.53,118.54 L248.99,118.88 L248.38,119.24 L247.29,119.88 L247.24,119.90 L246.10,120.52 L245.39,120.88 L244.95,121.09 L243.81,121.62 L243.23,121.88 L242.67,122.12 L241.52,122.57 L240.71,122.88 L240.38,123.00 L239.24,123.38 L238.09,123.74 L237.60,123.88 L236.95,124.06 L235.81,124.34 L234.66,124.60 L233.52,124.83 L233.24,124.88 L232.38,125.02 L231.23,125.18 L230.09,125.32 L228.95,125.42 L227.80,125.50 L226.66,125.55 L225.52,125.56 L224.37,125.55 L223.23,125.51 L222.09,125.44 L220.94,125.34 L219.80,125.21 L218.66,125.06 L217.54,124.88 L217.51,124.87 L216.37,124.65 L215.23,124.40 L214.08,124.12 L213.19,123.88 L212.94,123.81 L211.80,123.46 L210.65,123.08 L210.09,122.88 L209.51,122.66 L208.37,122.21 L207.56,121.88 L207.22,121.73 L206.08,121.20 L205.41,120.88 L204.94,120.64 L203.79,120.03 L203.51,119.88 L202.65,119.38 L201.81,118.88 L201.51,118.69 L200.36,117.95 L200.25,117.88 L199.22,117.16 L198.84,116.88 L198.08,116.31 L197.52,115.88 L196.93,115.40 L196.30,114.88 L195.79,114.43 L195.16,113.88 L194.65,113.40 L194.10,112.88 L193.50,112.29 L193.10,111.88 L192.36,111.09 L192.16,110.88 L191.27,109.88 L191.22,109.81 L190.44,108.88 L190.07,108.41 L189.66,107.88 L188.93,106.90 L188.91,106.88 L188.22,105.88 L187.79,105.23 L187.56,104.88 L186.94,103.88 L186.64,103.38 L186.35,102.88 L185.80,101.88 L185.50,101.32 L185.27,100.88 L184.79,99.88 L184.36,98.95 L184.32,98.88 L183.90,97.88 L183.49,96.88 L183.21,96.13 L183.12,95.88 L182.77,94.88 L182.45,93.88 L182.15,92.88 L182.07,92.57 L181.88,91.88 L181.64,90.88 L181.42,89.88 L181.22,88.88 L181.04,87.88 L180.93,87.15" style="stroke-width: 2; stroke: rgb(65, 117, 5); stroke-opacity: 1;"/><g><circle cx="183.59523501184322" cy="174.67349412642312" r="4" style="stroke-width: 3; stroke: rgb(157, 40, 192); stroke-opacity: 0.8; fill: rgb(157, 40, 192); fill-opacity: 0.15;"/><circle cx="183.59523501184322" cy="70.16641870536017" r="4" style="stroke-width: 3; stroke: rgb(157, 40, 192); stroke-opacity: 0.8; fill: rgb(157, 40, 192); fill-opacity: 0.15;"/><circle cx="235.84877272237472" cy="70.16641870536017" r="4" style="stroke-width: 3; stroke: rgb(157, 40, 192); stroke-opacity: 0.8; fill: rgb(157, 40, 192); fill-opacity: 0.15;"/></g></g></g><g><g class="test-xti" style="font-family: Asana-Math, Asana;"><line x1="26.834621880248758" y1="0" x2="26.834621880248758" y2="4" fill="none" stroke="rgb(50,50,50)" stroke-opacity="1" stroke-width="1"/><line x1="79.08815959078025" y1="0" x2="79.08815959078025" y2="4" fill="none" stroke="rgb(50,50,50)" stroke-opacity="1" stroke-width="1"/><line x1="131.34169730131177" y1="0" x2="131.34169730131177" y2="4" fill="none" stroke="rgb(50,50,50)" stroke-opacity="1" stroke-width="1"/><line x1="183.59523501184324" y1="0" x2="183.59523501184324" y2="4" fill="none" stroke="rgb(50,50,50)" stroke-opacity="1" stroke-width="1"/><line x1="235.84877272237472" y1="0" x2="235.84877272237472" y2="4" fill="none" stroke="rgb(50,50,50)" stroke-opacity="1" stroke-width="1"/><line x1="288.1023104329062" y1="0" x2="288.1023104329062" y2="4" fill="none" stroke="rgb(50,50,50)" stroke-opacity="1" stroke-width="1"/><line x1="340.35584814343775" y1="0" x2="340.35584814343775" y2="4" fill="none" stroke="rgb(50,50,50)" stroke-opacity="1" stroke-width="1"/></g><g class="test-xti" style="font-family: Asana-Math, Asana;"><line x1="26.834621880248758" y1="244.875" x2="26.834621880248758" y2="248.875" fill="none" stroke="rgb(50,50,50)" stroke-opacity="1" stroke-width="1"/><line x1="79.08815959078025" y1="244.875" x2="79.08815959078025" y2="248.875" fill="none" stroke="rgb(50,50,50)" stroke-opacity="1" stroke-width="1"/><line x1="131.34169730131177" y1="244.875" x2="131.34169730131177" y2="248.875" fill="none" stroke="rgb(50,50,50)" stroke-opacity="1" stroke-width="1"/><line x1="183.59523501184324" y1="244.875" x2="183.59523501184324" y2="248.875" fill="none" stroke="rgb(50,50,50)" stroke-opacity="1" stroke-width="1"/><line x1="235.84877272237472" y1="244.875" x2="235.84877272237472" y2="248.875" fill="none" stroke="rgb(50,50,50)" stroke-opacity="1" stroke-width="1"/><line x1="288.1023104329062" y1="244.875" x2="288.1023104329062" y2="248.875" fill="none" stroke="rgb(50,50,50)" stroke-opacity="1" stroke-width="1"/><line x1="340.35584814343775" y1="244.875" x2="340.35584814343775" y2="248.875" fill="none" stroke="rgb(50,50,50)" stroke-opacity="1" stroke-width="1"/></g></g><g><g class="test-yti" style="font-family: Asana-Math, Asana;"><line x1="11" y1="226.92703183695465" x2="15" y2="226.92703183695465" fill="none" stroke="rgb(50,50,50)" stroke-opacity="1" stroke-width="1"/><line x1="11" y1="174.67349412642315" x2="15" y2="174.67349412642315" fill="none" stroke="rgb(50,50,50)" stroke-opacity="1" stroke-width="1"/><line x1="11" y1="122.41995641589166" x2="15" y2="122.41995641589166" fill="none" stroke="rgb(50,50,50)" stroke-opacity="1" stroke-width="1"/><line x1="11" y1="70.1664187053602" x2="15" y2="70.1664187053602" fill="none" stroke="rgb(50,50,50)" stroke-opacity="1" stroke-width="1"/><line x1="11" y1="17.912880994828697" x2="15" y2="17.912880994828697" fill="none" stroke="rgb(50,50,50)" stroke-opacity="1" stroke-width="1"/></g><g class="test-yti" style="font-family: Asana-Math, Asana;"><line x1="356" y1="226.92703183695465" x2="360" y2="226.92703183695465" fill="none" stroke="rgb(50,50,50)" stroke-opacity="1" stroke-width="1"/><line x1="356" y1="174.67349412642315" x2="360" y2="174.67349412642315" fill="none" stroke="rgb(50,50,50)" stroke-opacity="1" stroke-width="1"/><line x1="356" y1="122.41995641589166" x2="360" y2="122.41995641589166" fill="none" stroke="rgb(50,50,50)" stroke-opacity="1" stroke-width="1"/><line x1="356" y1="70.1664187053602" x2="360" y2="70.1664187053602" fill="none" stroke="rgb(50,50,50)" stroke-opacity="1" stroke-width="1"/><line x1="356" y1="17.912880994828697" x2="360" y2="17.912880994828697" fill="none" stroke="rgb(50,50,50)" stroke-opacity="1" stroke-width="1"/></g></g><g class="test-xtl" style="font-family: &quot;Open Sans&quot;, verdana, arial, sans-serif;"><text text-anchor="middle" font-size="11" dominant-baseline="hanging" stroke="none" fill="rgb(50,50,50)" fill-opacity="1" x="23.699621880248756" y="251.875">-20</text><text text-anchor="middle" font-size="11" dominant-baseline="hanging" stroke="none" fill="rgb(50,50,50)" fill-opacity="1" x="75.95315959078025" y="251.875">-10</text><text text-anchor="middle" font-size="11" dominant-baseline="hanging" stroke="none" fill="rgb(50,50,50)" fill-opacity="1" x="131.34169730131177" y="251.875">0</text><text text-anchor="middle" font-size="11" dominant-baseline="hanging" stroke="none" fill="rgb(50,50,50)" fill-opacity="1" x="183.59523501184324" y="251.875">10</text><text text-anchor="middle" font-size="11" dominant-baseline="hanging" stroke="none" fill="rgb(50,50,50)" fill-opacity="1" x="235.84877272237472" y="251.875">20</text><text text-anchor="middle" font-size="11" dominant-baseline="hanging" stroke="none" fill="rgb(50,50,50)" fill-opacity="1" x="288.1023104329062" y="251.875">30</text><text text-anchor="middle" font-size="11" dominant-baseline="hanging" stroke="none" fill="rgb(50,50,50)" fill-opacity="1" x="340.35584814343775" y="251.875">40</text></g><g class="test-ytl" style="font-family: &quot;Open Sans&quot;, verdana, arial, sans-serif;"><text text-anchor="end" dominant-baseline="middle" font-size="11" stroke="none" fill="rgb(50,50,50)" fill-opacity="1" x="7" y="226.92703183695465">-20</text><text text-anchor="end" dominant-baseline="middle" font-size="11" stroke="none" fill="rgb(50,50,50)" fill-opacity="1" x="7" y="174.67349412642315">-10</text><text text-anchor="end" dominant-baseline="middle" font-size="11" stroke="none" fill="rgb(50,50,50)" fill-opacity="1" x="7" y="122.41995641589166">0</text><text text-anchor="end" dominant-baseline="middle" font-size="11" stroke="none" fill="rgb(50,50,50)" fill-opacity="1" x="7" y="70.1664187053602">10</text><text text-anchor="end" dominant-baseline="middle" font-size="11" stroke="none" fill="rgb(50,50,50)" fill-opacity="1" x="7" y="17.912880994828697">20</text></g></g></g></g><g/></g><g/><g/><g/></svg>
        <svg xmlns="http://www.w3.org/2000/svg" xmlns:xlink="http://www.w3.org/1999/xlink" width="660" height="300" style="width:660px;height:300px;font-family:Asana-Math, Asana;background:#FFF;"></svg>
</svg>
