<svg xmlns="http://www.w3.org/2000/svg" xmlns:xlink="http://www.w3.org/1999/xlink" x="0" y="0" width="661.3333740234375" height="224.6666717529297" style="
        width:661.3333740234375px;
        height:224.6666717529297px;
        background: #FFF;
        fill: none;
">
        
        
        <svg xmlns="http://www.w3.org/2000/svg" class="role-diagram-draw-area"><g class="shapes-region" style="stroke: black; fill: none;"><g class="composite-shape" data-amt="diagram/shapes/plot" transform="matrix(1,0,0,1,110,11)"><g><g><g class="test-xgi"><line x1="25.29629342007914" y1="3" x2="25.29629342007914" y2="186" fill="none" stroke="#c3c3c3" stroke-width="0.5"/><line x1="88.02805712831538" y1="3" x2="88.02805712831538" y2="186" fill="none" stroke="#c3c3c3" stroke-width="0.5"/><line x1="150.75982083655163" y1="3" x2="150.75982083655163" y2="186" fill="none" stroke="#c3c3c3" stroke-width="0.5"/><line x1="213.49158454478786" y1="3" x2="213.49158454478786" y2="186" fill="none" stroke="#c3c3c3" stroke-width="0.5"/><line x1="276.2233482530241" y1="3" x2="276.2233482530241" y2="186" fill="none" stroke="#c3c3c3" stroke-width="0.5"/><line x1="338.95511196126034" y1="3" x2="338.95511196126034" y2="186" fill="none" stroke="#c3c3c3" stroke-width="0.5"/><line x1="401.68687566949654" y1="3" x2="401.68687566949654" y2="186" fill="none" stroke="#c3c3c3" stroke-width="0.5"/></g><g class="test-ygi"><line x1="14" y1="153.65119195580985" x2="422" y2="153.65119195580985" fill="none" stroke="#c3c3c3" stroke-width="0.5"/><line x1="14" y1="90.9194282475736" x2="422" y2="90.9194282475736" fill="none" stroke="#c3c3c3" stroke-width="0.5"/><line x1="14" y1="28.187664539337362" x2="422" y2="28.187664539337362" fill="none" stroke="#c3c3c3" stroke-width="0.5"/></g></g><g><rect class="real" x="15" y="4" width="406" height="181" style="fill: transparent; stroke: gray;"/><g class="test-plot-expression"><defs><clipPath id="cpvfn9j60ze"><rect x="15" y="4" width="406" height="181"/></clipPath></defs><g clip-path="url(#cpvfn9j60ze)"><path d=" M14.00,306.51 L14.50,306.01 L15.00,305.51 L15.50,305.01 L16.00,304.51 L16.50,304.01 L17.00,303.51 L17.50,303.01 L18.00,302.51 L18.51,302.00 L19.01,301.50 L19.51,301.00 L20.01,300.50 L20.51,300.00 L21.01,299.50 L21.51,299.00 L22.01,298.50 L22.51,298.00 L23.01,297.50 L23.51,297.00 L24.01,296.50 L24.51,296.00 L25.01,295.50 L25.51,295.00 L26.01,294.50 L26.52,293.99 L27.02,293.49 L27.52,292.99 L28.02,292.49 L28.52,291.99 L29.02,291.49 L29.52,290.99 L30.02,290.49 L30.52,289.99 L31.02,289.49 L31.52,288.99 L32.02,288.49 L32.52,287.99 L33.02,287.49 L33.52,286.99 L34.02,286.49 L34.53,285.99 L35.03,285.48 L35.53,284.98 L36.03,284.48 L36.53,283.98 L37.03,283.48 L37.53,282.98 L38.03,282.48 L38.53,281.98 L39.03,281.48 L39.53,280.98 L40.03,280.48 L40.53,279.98 L41.03,279.48 L41.53,278.98 L42.03,278.48 L42.53,277.98 L43.04,277.47 L43.54,276.97 L44.04,276.47 L44.54,275.97 L45.04,275.47 L45.54,274.97 L46.04,274.47 L46.54,273.97 L47.04,273.47 L47.54,272.97 L48.04,272.47 L48.54,271.97 L49.04,271.47 L49.54,270.97 L50.04,270.47 L50.54,269.97 L51.05,269.46 L51.55,268.96 L52.05,268.46 L52.55,267.96 L53.05,267.46 L53.55,266.96 L54.05,266.46 L54.55,265.96 L55.05,265.46 L55.55,264.96 L56.05,264.46 L56.55,263.96 L57.05,263.46 L57.55,262.96 L58.05,262.46 L58.55,261.96 L59.06,261.46 L59.56,260.95 L60.06,260.45 L60.56,259.95 L61.06,259.45 L61.56,258.95 L62.06,258.45 L62.56,257.95 L63.06,257.45 L63.56,256.95 L64.06,256.45 L64.56,255.95 L65.06,255.45 L65.56,254.95 L66.06,254.45 L66.56,253.95 L67.07,253.45 L67.57,252.94 L68.07,252.44 L68.57,251.94 L69.07,251.44 L69.57,250.94 L70.07,250.44 L70.57,249.94 L71.07,249.44 L71.57,248.94 L72.07,248.44 L72.57,247.94 L73.07,247.44 L73.57,246.94 L74.07,246.44 L74.57,245.94 L75.07,245.44 L75.58,244.93 L76.08,244.43 L76.58,243.93 L77.08,243.43 L77.58,242.93 L78.08,242.43 L78.58,241.93 L79.08,241.43 L79.58,240.93 L80.08,240.43 L80.58,239.93 L81.08,239.43 L81.58,238.93 L82.08,238.43 L82.58,237.93 L83.08,237.43 L83.59,236.93 L84.09,236.42 L84.59,235.92 L85.09,235.42 L85.59,234.92 L86.09,234.42 L86.59,233.92 L87.09,233.42 L87.59,232.92 L88.09,232.42 L88.59,231.92 L89.09,231.42 L89.59,230.92 L90.09,230.42 L90.59,229.92 L91.09,229.42 L91.60,228.92 L92.10,228.41 L92.60,227.91 L93.10,227.41 L93.60,226.91 L94.10,226.41 L94.60,225.91 L95.10,225.41 L95.60,224.91 L96.10,224.41 L96.60,223.91 L97.10,223.41 L97.60,222.91 L98.10,222.41 L98.60,221.91 L99.10,221.41 L99.60,220.91 L100.11,220.40 L100.61,219.90 L101.11,219.40 L101.61,218.90 L102.11,218.40 L102.61,217.90 L103.11,217.40 L103.61,216.90 L104.11,216.40 L104.61,215.90 L105.11,215.40 L105.61,214.90 L106.11,214.40 L106.61,213.90 L107.11,213.40 L107.61,212.90 L108.12,212.39 L108.62,211.89 L109.12,211.39 L109.62,210.89 L110.12,210.39 L110.62,209.89 L111.12,209.39 L111.62,208.89 L112.12,208.39 L112.62,207.89 L113.12,207.39 L113.62,206.89 L114.12,206.39 L114.62,205.89 L115.12,205.39 L115.62,204.89 L116.13,204.39 L116.63,203.88 L117.13,203.38 L117.63,202.88 L118.13,202.38 L118.63,201.88 L119.13,201.38 L119.63,200.88 L120.13,200.38 L120.63,199.88 L121.13,199.38 L121.63,198.88 L122.13,198.38 L122.63,197.88 L123.13,197.38 L123.63,196.88 L124.13,196.38 L124.64,195.87 L125.14,195.37 L125.64,194.87 L126.14,194.37 L126.64,193.87 L127.14,193.37 L127.64,192.87 L128.14,192.37 L128.64,191.87 L129.14,191.37 L129.64,190.87 L130.14,190.37 L130.64,189.87 L131.14,189.37 L131.64,188.87 L132.14,188.37 L132.65,187.86 L133.15,187.36 L133.65,186.86 L134.15,186.36 L134.65,185.86 L135.15,185.36 L135.65,184.86 L136.15,184.36 L136.65,183.86 L137.15,183.36 L137.65,182.86 L138.15,182.36 L138.65,181.86 L139.15,181.36 L139.65,180.86 L140.15,180.36 L140.66,179.86 L141.16,179.35 L141.66,178.85 L142.16,178.35 L142.66,177.85 L143.16,177.35 L143.66,176.85 L144.16,176.35 L144.66,175.85 L145.16,175.35 L145.66,174.85 L146.16,174.35 L146.66,173.85 L147.16,173.35 L147.66,172.85 L148.16,172.35 L148.67,171.85 L149.17,171.34 L149.67,170.84 L150.17,170.34 L150.67,169.84 L151.17,169.34 L151.67,168.84 L152.17,168.34 L152.67,167.84 L153.17,167.34 L153.67,166.84 L154.17,166.34 L154.67,165.84 L155.17,165.34 L155.67,164.84 L156.17,164.34 L156.67,163.84 L157.18,163.33 L157.68,162.83 L158.18,162.33 L158.68,161.83 L159.18,161.33 L159.68,160.83 L160.18,160.33 L160.68,159.83 L161.18,159.33 L161.68,158.83 L162.18,158.33 L162.68,157.83 L163.18,157.33 L163.68,156.83 L164.18,156.33 L164.68,155.83 L165.19,155.33 L165.69,154.82 L166.19,154.32 L166.69,153.82 L167.19,153.32 L167.69,152.82 L168.19,152.32 L168.69,151.82 L169.19,151.32 L169.69,150.82 L170.19,150.32 L170.69,149.82 L171.19,149.32 L171.69,148.82 L172.19,148.32 L172.69,147.82 L173.20,147.32 L173.70,146.81 L174.20,146.31 L174.70,145.81 L175.20,145.31 L175.70,144.81 L176.20,144.31 L176.70,143.81 L177.20,143.31 L177.70,142.81 L178.20,142.31 L178.70,141.81 L179.20,141.31 L179.70,140.81 L180.20,140.31 L180.70,139.81 L181.20,139.31 L181.71,138.80 L182.21,138.30 L182.71,137.80 L183.21,137.30 L183.71,136.80 L184.21,136.30 L184.71,135.80 L185.21,135.30 L185.71,134.80 L186.21,134.30 L186.71,133.80 L187.21,133.30 L187.71,132.80 L188.21,132.30 L188.71,131.80 L189.21,131.30 L189.72,130.79 L190.22,130.29 L190.72,129.79 L191.22,129.29 L191.72,128.79 L192.22,128.29 L192.72,127.79 L193.22,127.29 L193.72,126.79 L194.22,126.29 L194.72,125.79 L195.22,125.29 L195.72,124.79 L196.22,124.29 L196.72,123.79 L197.22,123.29 L197.73,122.79 L198.23,122.28 L198.73,121.78 L199.23,121.28 L199.73,120.78 L200.23,120.28 L200.73,119.78 L201.23,119.28 L201.73,118.78 L202.23,118.28 L202.73,117.78 L203.23,117.28 L203.73,116.78 L204.23,116.28 L204.73,115.78 L205.23,115.28 L205.73,114.78 L206.24,114.27 L206.74,113.77 L207.24,113.27 L207.74,112.77 L208.24,112.27 L208.74,111.77 L209.24,111.27 L209.74,110.77 L210.24,110.27 L210.74,109.77 L211.24,109.27 L211.74,108.77 L212.24,108.27 L212.74,107.77 L213.24,107.27 L213.74,106.77 L214.25,106.26 L214.75,105.76 L215.25,105.26 L215.75,104.76 L216.25,104.26 L216.75,103.76 L217.25,103.26 L217.75,102.76 L218.25,102.26 L218.75,101.76 L219.25,101.26 L219.75,100.76 L220.25,100.26 L220.75,99.76 L221.25,99.26 L221.75,98.76 L222.26,98.26 L222.76,97.75 L223.26,97.25 L223.76,96.75 L224.26,96.25 L224.76,95.75 L225.26,95.25 L225.76,94.75 L226.26,94.25 L226.76,93.75 L227.26,93.25 L227.76,92.75 L228.26,92.25 L228.76,91.75 L229.26,91.25 L229.76,90.75 L230.27,90.25 L230.77,89.74 L231.27,89.24 L231.77,88.74 L232.27,88.24 L232.77,87.74 L233.27,87.24 L233.77,86.74 L234.27,86.24 L234.77,85.74 L235.27,85.24 L235.77,84.74 L236.27,84.24 L236.77,83.74 L237.27,83.24 L237.77,82.74 L238.27,82.24 L238.78,81.73 L239.28,81.23 L239.78,80.73 L240.28,80.23 L240.78,79.73 L241.28,79.23 L241.78,78.73 L242.28,78.23 L242.78,77.73 L243.28,77.23 L243.78,76.73 L244.28,76.23 L244.78,75.73 L245.28,75.23 L245.78,74.73 L246.28,74.23 L246.79,73.73 L247.29,73.22 L247.79,72.72 L248.29,72.22 L248.79,71.72 L249.29,71.22 L249.79,70.72 L250.29,70.22 L250.79,69.72 L251.29,69.22 L251.79,68.72 L252.29,68.22 L252.79,67.72 L253.29,67.22 L253.79,66.72 L254.29,66.22 L254.80,65.72 L255.30,65.21 L255.80,64.71 L256.30,64.21 L256.80,63.71 L257.30,63.21 L257.80,62.71 L258.30,62.21 L258.80,61.71 L259.30,61.21 L259.80,60.71 L260.30,60.21 L260.80,59.71 L261.30,59.21 L261.80,58.71 L262.30,58.21 L262.80,57.71 L263.31,57.20 L263.81,56.70 L264.31,56.20 L264.81,55.70 L265.31,55.20 L265.81,54.70 L266.31,54.20 L266.81,53.70 L267.31,53.20 L267.81,52.70 L268.31,52.20 L268.81,51.70 L269.31,51.20 L269.81,50.70 L270.31,50.20 L270.81,49.70 L271.32,49.19 L271.82,48.69 L272.32,48.19 L272.82,47.69 L273.32,47.19 L273.82,46.69 L274.32,46.19 L274.82,45.69 L275.32,45.19 L275.82,44.69 L276.32,44.19 L276.82,43.69 L277.32,43.19 L277.82,42.69 L278.32,42.19 L278.82,41.69 L279.33,41.19 L279.83,40.68 L280.33,40.18 L280.83,39.68 L281.33,39.18 L281.83,38.68 L282.33,38.18 L282.83,37.68 L283.33,37.18 L283.83,36.68 L284.33,36.18 L284.83,35.68 L285.33,35.18 L285.83,34.68 L286.33,34.18 L286.83,33.68 L287.33,33.18 L287.84,32.67 L288.34,32.17 L288.84,31.67 L289.34,31.17 L289.84,30.67 L290.34,30.17 L290.84,29.67 L291.34,29.17 L291.84,28.67 L292.34,28.17 L292.84,27.67 L293.34,27.17 L293.84,26.67 L294.34,26.17 L294.84,25.67 L295.34,25.17 L295.85,24.66 L296.35,24.16 L296.85,23.66 L297.35,23.16 L297.85,22.66 L298.35,22.16 L298.85,21.66 L299.35,21.16 L299.85,20.66 L300.35,20.16 L300.85,19.66 L301.35,19.16 L301.85,18.66 L302.35,18.16 L302.85,17.66 L303.35,17.16 L303.86,16.66 L304.36,16.15 L304.86,15.65 L305.36,15.15 L305.86,14.65 L306.36,14.15 L306.86,13.65 L307.36,13.15 L307.86,12.65 L308.36,12.15 L308.86,11.65 L309.36,11.15 L309.86,10.65 L310.36,10.15 L310.86,9.65 L311.36,9.15 L311.87,8.65 L312.37,8.14 L312.87,7.64 L313.37,7.14 L313.87,6.64 L314.37,6.14 L314.87,5.64 L315.37,5.14 L315.87,4.64 L316.37,4.14 L316.87,3.64 L317.37,3.14 L317.87,2.64 L318.37,2.14 L318.87,1.64 L319.37,1.14 L319.87,0.64 L320.38,0.13 L320.88,-0.37 L321.38,-0.87 L321.88,-1.37 L322.38,-1.87 L322.88,-2.37 L323.38,-2.87 L323.88,-3.37 L324.38,-3.87 L324.88,-4.37 L325.38,-4.87 L325.88,-5.37 L326.38,-5.87 L326.88,-6.37 L327.38,-6.87 L327.88,-7.37 L328.39,-7.87 L328.89,-8.38 L329.39,-8.88 L329.89,-9.38 L330.39,-9.88 L330.89,-10.38 L331.39,-10.88 L331.89,-11.38 L332.39,-11.88 L332.89,-12.38 L333.39,-12.88 L333.89,-13.38 L334.39,-13.88 L334.89,-14.38 L335.39,-14.88 L335.89,-15.38 L336.40,-15.88 L336.90,-16.39 L337.40,-16.89 L337.90,-17.39 L338.40,-17.89 L338.90,-18.39 L339.40,-18.89 L339.90,-19.39 L340.40,-19.89 L340.90,-20.39 L341.40,-20.89 L341.90,-21.39 L342.40,-21.89 L342.90,-22.39 L343.40,-22.89 L343.90,-23.39 L344.40,-23.89 L344.91,-24.40 L345.41,-24.90 L345.91,-25.40 L346.41,-25.90 L346.91,-26.40 L347.41,-26.90 L347.91,-27.40 L348.41,-27.90 L348.91,-28.40 L349.41,-28.90 L349.91,-29.40 L350.41,-29.90 L350.91,-30.40 L351.41,-30.90 L351.91,-31.40 L352.41,-31.90 L352.92,-32.41 L353.42,-32.91 L353.92,-33.41 L354.42,-33.91 L354.92,-34.41 L355.42,-34.91 L355.92,-35.41 L356.42,-35.91 L356.92,-36.41 L357.42,-36.91 L357.92,-37.41 L358.42,-37.91 L358.92,-38.41 L359.42,-38.91 L359.92,-39.41 L360.42,-39.91 L360.93,-40.41 L361.43,-40.92 L361.93,-41.42 L362.43,-41.92 L362.93,-42.42 L363.43,-42.92 L363.93,-43.42 L364.43,-43.92 L364.93,-44.42 L365.43,-44.92 L365.93,-45.42 L366.43,-45.92 L366.93,-46.42 L367.43,-46.92 L367.93,-47.42 L368.43,-47.92 L368.93,-48.42 L369.44,-48.93 L369.94,-49.43 L370.44,-49.93 L370.94,-50.43 L371.44,-50.93 L371.94,-51.43 L372.44,-51.93 L372.94,-52.43 L373.44,-52.93 L373.94,-53.43 L374.44,-53.93 L374.94,-54.43 L375.44,-54.93 L375.94,-55.43 L376.44,-55.93 L376.94,-56.43 L377.45,-56.94 L377.95,-57.44 L378.45,-57.94 L378.95,-58.44 L379.45,-58.94 L379.95,-59.44 L380.45,-59.94 L380.95,-60.44 L381.45,-60.94 L381.95,-61.44 L382.45,-61.94 L382.95,-62.44 L383.45,-62.94 L383.95,-63.44 L384.45,-63.94 L384.95,-64.44 L385.46,-64.94 L385.96,-65.45 L386.46,-65.95 L386.96,-66.45 L387.46,-66.95 L387.96,-67.45 L388.46,-67.95 L388.96,-68.45 L389.46,-68.95 L389.96,-69.45 L390.46,-69.95 L390.96,-70.45 L391.46,-70.95 L391.96,-71.45 L392.46,-71.95 L392.96,-72.45 L393.47,-72.95 L393.97,-73.46 L394.47,-73.96 L394.97,-74.46 L395.47,-74.96 L395.97,-75.46 L396.47,-75.96 L396.97,-76.46 L397.47,-76.96 L397.97,-77.46 L398.47,-77.96 L398.97,-78.46 L399.47,-78.96 L399.97,-79.46 L400.47,-79.96 L400.97,-80.46 L401.47,-80.96 L401.98,-81.47 L402.48,-81.97 L402.98,-82.47 L403.48,-82.97 L403.98,-83.47 L404.48,-83.97 L404.98,-84.47 L405.48,-84.97 L405.98,-85.47 L406.48,-85.97 L406.98,-86.47 L407.48,-86.97 L407.98,-87.47 L408.48,-87.97 L408.98,-88.47 L409.48,-88.97 L409.99,-89.47 L410.49,-89.98 L410.99,-90.48 L411.49,-90.98 L411.99,-91.48 L412.49,-91.98 L412.99,-92.48 L413.49,-92.98 L413.99,-93.48 L414.49,-93.98 L414.99,-94.48 L415.49,-94.98 L415.99,-95.48 L416.49,-95.98 L416.99,-96.48 L417.49,-96.98 L418.00,-97.48 L418.50,-97.99 L419.00,-98.49 L419.50,-98.99 L420.00,-99.49 L420.50,-99.99 L421.00,-100.49 L421.50,-100.99 L422.00,-101.49" style="stroke-width: 2; stroke: rgb(208, 2, 27); stroke-opacity: 1;"/><path d=" M14.00,128.05 L14.50,128.72 L15.00,129.37 L15.50,130.01 L16.00,130.63 L16.50,131.23 L17.00,131.82 L17.50,132.39 L18.00,132.95 L18.51,133.49 L19.01,134.01 L19.51,134.51 L20.01,135.00 L20.51,135.47 L21.01,135.92 L21.51,136.36 L22.01,136.77 L22.51,137.17 L23.01,137.55 L23.51,137.91 L24.01,138.25 L24.51,138.58 L25.01,138.88 L25.51,139.17 L26.01,139.43 L26.52,139.68 L27.02,139.91 L27.52,140.11 L28.02,140.30 L28.52,140.47 L29.02,140.62 L29.52,140.75 L30.02,140.86 L30.52,140.95 L31.02,141.02 L31.52,141.07 L32.02,141.10 L32.52,141.10 L33.02,141.09 L33.52,141.06 L34.02,141.01 L34.53,140.94 L35.03,140.85 L35.53,140.74 L36.03,140.61 L36.53,140.46 L37.03,140.29 L37.53,140.11 L38.03,139.90 L38.53,139.67 L39.03,139.42 L39.53,139.15 L40.03,138.87 L40.53,138.56 L41.03,138.24 L41.53,137.90 L42.03,137.54 L42.53,137.16 L43.04,136.76 L43.54,136.34 L44.04,135.91 L44.54,135.45 L45.04,134.98 L45.54,134.49 L46.04,133.99 L46.54,133.47 L47.04,132.93 L47.54,132.37 L48.04,131.80 L48.54,131.21 L49.04,130.60 L49.54,129.98 L50.04,129.35 L50.54,128.70 L51.05,128.03 L51.55,127.35 L52.05,126.65 L52.55,125.94 L53.05,125.22 L53.55,124.48 L54.05,123.73 L54.55,122.96 L55.05,122.19 L55.55,121.40 L56.05,120.60 L56.55,119.78 L57.05,118.96 L57.55,118.12 L58.05,117.28 L58.55,116.42 L59.06,115.55 L59.56,114.67 L60.06,113.79 L60.56,112.89 L61.06,111.99 L61.56,111.07 L62.06,110.15 L62.56,109.23 L63.06,108.29 L63.56,107.35 L64.06,106.40 L64.56,105.44 L65.06,104.48 L65.56,103.51 L66.06,102.54 L66.56,101.57 L67.07,100.59 L67.57,99.60 L68.07,98.61 L68.57,97.62 L69.07,96.63 L69.57,95.63 L70.07,94.64 L70.57,93.64 L71.07,92.64 L71.57,91.64 L72.07,90.63 L72.57,89.63 L73.07,88.63 L73.57,87.63 L74.07,86.63 L74.57,85.64 L75.07,84.64 L75.58,83.65 L76.08,82.66 L76.58,81.68 L77.08,80.69 L77.58,79.72 L78.08,78.74 L78.58,77.77 L79.08,76.81 L79.58,75.85 L80.08,74.90 L80.58,73.95 L81.08,73.02 L81.58,72.08 L82.08,71.16 L82.58,70.24 L83.08,69.34 L83.59,68.44 L84.09,67.55 L84.59,66.66 L85.09,65.79 L85.59,64.93 L86.09,64.08 L86.59,63.24 L87.09,62.41 L87.59,61.59 L88.09,60.78 L88.59,59.99 L89.09,59.21 L89.59,58.44 L90.09,57.68 L90.59,56.94 L91.09,56.21 L91.60,55.49 L92.10,54.79 L92.60,54.10 L93.10,53.43 L93.60,52.77 L94.10,52.13 L94.60,51.50 L95.10,50.89 L95.60,50.29 L96.10,49.71 L96.60,49.15 L97.10,48.60 L97.60,48.07 L98.10,47.56 L98.60,47.07 L99.10,46.59 L99.60,46.13 L100.11,45.68 L100.61,45.26 L101.11,44.85 L101.61,44.47 L102.11,44.10 L102.61,43.74 L103.11,43.41 L103.61,43.10 L104.11,42.81 L104.61,42.53 L105.11,42.27 L105.61,42.04 L106.11,41.82 L106.61,41.62 L107.11,41.45 L107.61,41.29 L108.12,41.15 L108.62,41.03 L109.12,40.93 L109.62,40.85 L110.12,40.79 L110.62,40.76 L111.12,40.74 L111.62,40.74 L112.12,40.76 L112.62,40.80 L113.12,40.86 L113.62,40.94 L114.12,41.04 L114.62,41.16 L115.12,41.30 L115.62,41.46 L116.13,41.64 L116.63,41.84 L117.13,42.06 L117.63,42.30 L118.13,42.56 L118.63,42.83 L119.13,43.13 L119.63,43.44 L120.13,43.78 L120.63,44.13 L121.13,44.50 L121.63,44.89 L122.13,45.30 L122.63,45.73 L123.13,46.17 L123.63,46.63 L124.13,47.11 L124.64,47.61 L125.14,48.13 L125.64,48.66 L126.14,49.21 L126.64,49.77 L127.14,50.35 L127.64,50.95 L128.14,51.56 L128.64,52.19 L129.14,52.84 L129.64,53.50 L130.14,54.17 L130.64,54.86 L131.14,55.56 L131.64,56.28 L132.14,57.01 L132.65,57.76 L133.15,58.51 L133.65,59.29 L134.15,60.07 L134.65,60.86 L135.15,61.67 L135.65,62.49 L136.15,63.32 L136.65,64.16 L137.15,65.02 L137.65,65.88 L138.15,66.75 L138.65,67.63 L139.15,68.53 L139.65,69.43 L140.15,70.33 L140.66,71.25 L141.16,72.18 L141.66,73.11 L142.16,74.05 L142.66,75.00 L143.16,75.95 L143.66,76.91 L144.16,77.87 L144.66,78.84 L145.16,79.81 L145.66,80.79 L146.16,81.78 L146.66,82.76 L147.16,83.75 L147.66,84.74 L148.16,85.74 L148.67,86.73 L149.17,87.73 L149.67,88.73 L150.17,89.73 L150.67,90.73 L151.17,91.74 L151.67,92.74 L152.17,93.74 L152.67,94.74 L153.17,95.73 L153.67,96.73 L154.17,97.72 L154.67,98.71 L155.17,99.70 L155.67,100.68 L156.17,101.66 L156.67,102.64 L157.18,103.61 L157.68,104.58 L158.18,105.54 L158.68,106.49 L159.18,107.44 L159.68,108.38 L160.18,109.32 L160.68,110.25 L161.18,111.17 L161.68,112.08 L162.18,112.98 L162.68,113.88 L163.18,114.76 L163.68,115.64 L164.18,116.51 L164.68,117.36 L165.19,118.21 L165.69,119.04 L166.19,119.87 L166.69,120.68 L167.19,121.48 L167.69,122.27 L168.19,123.04 L168.69,123.80 L169.19,124.55 L169.69,125.29 L170.19,126.01 L170.69,126.72 L171.19,127.42 L171.69,128.10 L172.19,128.76 L172.69,129.41 L173.20,130.05 L173.70,130.67 L174.20,131.27 L174.70,131.86 L175.20,132.43 L175.70,132.98 L176.20,133.52 L176.70,134.04 L177.20,134.54 L177.70,135.03 L178.20,135.50 L178.70,135.95 L179.20,136.38 L179.70,136.80 L180.20,137.19 L180.70,137.57 L181.20,137.93 L181.71,138.27 L182.21,138.60 L182.71,138.90 L183.21,139.18 L183.71,139.45 L184.21,139.69 L184.71,139.92 L185.21,140.13 L185.71,140.31 L186.21,140.48 L186.71,140.63 L187.21,140.76 L187.71,140.86 L188.21,140.95 L188.71,141.02 L189.21,141.07 L189.72,141.10 L190.22,141.10 L190.72,141.09 L191.22,141.06 L191.72,141.01 L192.22,140.94 L192.72,140.85 L193.22,140.74 L193.72,140.60 L194.22,140.45 L194.72,140.28 L195.22,140.09 L195.72,139.88 L196.22,139.65 L196.72,139.41 L197.22,139.14 L197.73,138.85 L198.23,138.54 L198.73,138.22 L199.23,137.87 L199.73,137.51 L200.23,137.13 L200.73,136.73 L201.23,136.31 L201.73,135.88 L202.23,135.42 L202.73,134.95 L203.23,134.46 L203.73,133.96 L204.23,133.43 L204.73,132.89 L205.23,132.34 L205.73,131.76 L206.24,131.17 L206.74,130.57 L207.24,129.94 L207.74,129.31 L208.24,128.65 L208.74,127.99 L209.24,127.30 L209.74,126.61 L210.24,125.90 L210.74,125.17 L211.24,124.43 L211.74,123.68 L212.24,122.92 L212.74,122.14 L213.24,121.35 L213.74,120.55 L214.25,119.73 L214.75,118.91 L215.25,118.07 L215.75,117.22 L216.25,116.37 L216.75,115.50 L217.25,114.62 L217.75,113.73 L218.25,112.84 L218.75,111.93 L219.25,111.02 L219.75,110.10 L220.25,109.17 L220.75,108.23 L221.25,107.29 L221.75,106.34 L222.26,105.38 L222.76,104.42 L223.26,103.45 L223.76,102.48 L224.26,101.51 L224.76,100.52 L225.26,99.54 L225.76,98.55 L226.26,97.56 L226.76,96.57 L227.26,95.57 L227.76,94.57 L228.26,93.57 L228.76,92.57 L229.26,91.57 L229.76,90.57 L230.27,89.57 L230.77,88.57 L231.27,87.57 L231.77,86.57 L232.27,85.58 L232.77,84.58 L233.27,83.59 L233.77,82.60 L234.27,81.62 L234.77,80.63 L235.27,79.66 L235.77,78.68 L236.27,77.71 L236.77,76.75 L237.27,75.79 L237.77,74.84 L238.27,73.90 L238.78,72.96 L239.28,72.03 L239.78,71.10 L240.28,70.19 L240.78,69.28 L241.28,68.38 L241.78,67.49 L242.28,66.61 L242.78,65.74 L243.28,64.88 L243.78,64.03 L244.28,63.19 L244.78,62.36 L245.28,61.54 L245.78,60.73 L246.28,59.94 L246.79,59.16 L247.29,58.39 L247.79,57.63 L248.29,56.89 L248.79,56.16 L249.29,55.45 L249.79,54.75 L250.29,54.06 L250.79,53.39 L251.29,52.73 L251.79,52.09 L252.29,51.46 L252.79,50.85 L253.29,50.26 L253.79,49.68 L254.29,49.12 L254.80,48.57 L255.30,48.04 L255.80,47.53 L256.30,47.03 L256.80,46.56 L257.30,46.10 L257.80,45.66 L258.30,45.23 L258.80,44.83 L259.30,44.44 L259.80,44.07 L260.30,43.72 L260.80,43.39 L261.30,43.08 L261.80,42.79 L262.30,42.51 L262.80,42.26 L263.31,42.02 L263.81,41.81 L264.31,41.61 L264.81,41.44 L265.31,41.28 L265.81,41.14 L266.31,41.02 L266.81,40.93 L267.31,40.85 L267.81,40.79 L268.31,40.75 L268.81,40.74 L269.31,40.74 L269.81,40.76 L270.31,40.80 L270.81,40.86 L271.32,40.95 L271.82,41.05 L272.32,41.17 L272.82,41.31 L273.32,41.47 L273.82,41.65 L274.32,41.85 L274.82,42.07 L275.32,42.31 L275.82,42.57 L276.32,42.85 L276.82,43.15 L277.32,43.47 L277.82,43.80 L278.32,44.15 L278.82,44.53 L279.33,44.92 L279.83,45.33 L280.33,45.75 L280.83,46.20 L281.33,46.66 L281.83,47.14 L282.33,47.64 L282.83,48.16 L283.33,48.69 L283.83,49.24 L284.33,49.81 L284.83,50.39 L285.33,50.99 L285.83,51.60 L286.33,52.23 L286.83,52.88 L287.33,53.54 L287.84,54.21 L288.34,54.90 L288.84,55.61 L289.34,56.33 L289.84,57.06 L290.34,57.80 L290.84,58.56 L291.34,59.33 L291.84,60.12 L292.34,60.91 L292.84,61.72 L293.34,62.54 L293.84,63.37 L294.34,64.22 L294.84,65.07 L295.34,65.93 L295.85,66.81 L296.35,67.69 L296.85,68.58 L297.35,69.48 L297.85,70.39 L298.35,71.31 L298.85,72.23 L299.35,73.17 L299.85,74.11 L300.35,75.05 L300.85,76.01 L301.35,76.97 L301.85,77.93 L302.35,78.90 L302.85,79.87 L303.35,80.85 L303.86,81.84 L304.36,82.82 L304.86,83.81 L305.36,84.80 L305.86,85.80 L306.36,86.80 L306.86,87.80 L307.36,88.80 L307.86,89.80 L308.36,90.80 L308.86,91.80 L309.36,92.80 L309.86,93.80 L310.36,94.80 L310.86,95.80 L311.36,96.79 L311.87,97.78 L312.37,98.77 L312.87,99.76 L313.37,100.75 L313.87,101.73 L314.37,102.70 L314.87,103.67 L315.37,104.64 L315.87,105.60 L316.37,106.55 L316.87,107.50 L317.37,108.44 L317.87,109.38 L318.37,110.30 L318.87,111.22 L319.37,112.14 L319.87,113.04 L320.38,113.93 L320.88,114.82 L321.38,115.69 L321.88,116.56 L322.38,117.41 L322.88,118.26 L323.38,119.09 L323.88,119.92 L324.38,120.73 L324.88,121.53 L325.38,122.31 L325.88,123.09 L326.38,123.85 L326.88,124.60 L327.38,125.34 L327.88,126.06 L328.39,126.77 L328.89,127.46 L329.39,128.14 L329.89,128.80 L330.39,129.45 L330.89,130.09 L331.39,130.70 L331.89,131.31 L332.39,131.89 L332.89,132.46 L333.39,133.02 L333.89,133.55 L334.39,134.07 L334.89,134.57 L335.39,135.06 L335.89,135.53 L336.40,135.98 L336.90,136.41 L337.40,136.82 L337.90,137.22 L338.40,137.60 L338.90,137.95 L339.40,138.29 L339.90,138.61 L340.40,138.92 L340.90,139.20 L341.40,139.46 L341.90,139.71 L342.40,139.93 L342.90,140.14 L343.40,140.32 L343.90,140.49 L344.40,140.64 L344.91,140.76 L345.41,140.87 L345.91,140.96 L346.41,141.02 L346.91,141.07 L347.41,141.10 L347.91,141.10 L348.41,141.09 L348.91,141.06 L349.41,141.01 L349.91,140.93 L350.41,140.84 L350.91,140.73 L351.41,140.60 L351.91,140.44 L352.41,140.27 L352.92,140.08 L353.42,139.87 L353.92,139.64 L354.42,139.39 L354.92,139.12 L355.42,138.83 L355.92,138.52 L356.42,138.20 L356.92,137.85 L357.42,137.49 L357.92,137.11 L358.42,136.71 L358.92,136.29 L359.42,135.85 L359.92,135.39 L360.42,134.92 L360.93,134.43 L361.43,133.92 L361.93,133.40 L362.43,132.86 L362.93,132.30 L363.43,131.73 L363.93,131.13 L364.43,130.53 L364.93,129.91 L365.43,129.27 L365.93,128.61 L366.43,127.94 L366.93,127.26 L367.43,126.56 L367.93,125.85 L368.43,125.13 L368.93,124.39 L369.44,123.63 L369.94,122.87 L370.44,122.09 L370.94,121.30 L371.44,120.50 L371.94,119.68 L372.44,118.86 L372.94,118.02 L373.44,117.17 L373.94,116.31 L374.44,115.44 L374.94,114.56 L375.44,113.68 L375.94,112.78 L376.44,111.87 L376.94,110.96 L377.45,110.04 L377.95,109.11 L378.45,108.17 L378.95,107.23 L379.45,106.28 L379.95,105.32 L380.45,104.36 L380.95,103.39 L381.45,102.42 L381.95,101.44 L382.45,100.46 L382.95,99.48 L383.45,98.49 L383.95,97.50 L384.45,96.51 L384.95,95.51 L385.46,94.51 L385.96,93.51 L386.46,92.51 L386.96,91.51 L387.46,90.51 L387.96,89.51 L388.46,88.51 L388.96,87.51 L389.46,86.51 L389.96,85.51 L390.46,84.52 L390.96,83.53 L391.46,82.54 L391.96,81.55 L392.46,80.57 L392.96,79.59 L393.47,78.62 L393.97,77.65 L394.47,76.69 L394.97,75.73 L395.47,74.78 L395.97,73.84 L396.47,72.90 L396.97,71.97 L397.47,71.05 L397.97,70.13 L398.47,69.22 L398.97,68.32 L399.47,67.44 L399.97,66.56 L400.47,65.68 L400.97,64.82 L401.47,63.97 L401.98,63.14 L402.48,62.31 L402.98,61.49 L403.48,60.68 L403.98,59.89 L404.48,59.11 L404.98,58.34 L405.48,57.59 L405.98,56.85 L406.48,56.12 L406.98,55.40 L407.48,54.70 L407.98,54.02 L408.48,53.35 L408.98,52.69 L409.48,52.05 L409.99,51.42 L410.49,50.81 L410.99,50.22 L411.49,49.64 L411.99,49.08 L412.49,48.54 L412.99,48.01 L413.49,47.50 L413.99,47.00 L414.49,46.53 L414.99,46.07 L415.49,45.63 L415.99,45.21 L416.49,44.80 L416.99,44.42 L417.49,44.05 L418.00,43.70 L418.50,43.37 L419.00,43.06 L419.50,42.77 L420.00,42.50 L420.50,42.24 L421.00,42.01 L421.50,41.80 L422.00,41.60" style="stroke-width: 2; stroke: rgb(0, 0, 0); stroke-opacity: 0.1;"/><path d=" M14.00,153.03 L14.50,153.58 L15.00,154.08 L15.50,154.52 L16.00,154.91 L16.50,155.24 L17.00,155.52 L17.50,155.75 L18.00,155.92 L18.51,156.03 L19.01,156.10 L19.51,156.11 L20.01,156.07 L20.51,155.98 L21.01,155.84 L21.51,155.65 L22.01,155.41 L22.51,155.12 L23.01,154.79 L23.51,154.41 L24.01,153.98 L24.51,153.51 L25.01,153.00 L25.51,152.45 L26.01,151.85 L26.52,151.22 L27.02,150.55 L27.52,149.84 L28.02,149.10 L28.52,148.33 L29.02,147.52 L29.52,146.68 L30.02,145.81 L30.52,144.92 L31.02,143.99 L31.52,143.05 L32.02,142.08 L32.52,141.09 L33.02,140.07 L33.52,139.04 L34.02,138.00 L34.53,136.94 L35.03,135.86 L35.53,134.77 L36.03,133.68 L36.53,132.57 L37.03,131.46 L37.53,130.34 L38.03,129.22 L38.53,128.09 L39.03,126.97 L39.53,125.84 L40.03,124.72 L40.53,123.60 L41.03,122.48 L41.53,121.37 L42.03,120.27 L42.53,119.18 L43.04,118.09 L43.54,117.02 L44.04,115.96 L44.54,114.92 L45.04,113.89 L45.54,112.88 L46.04,111.88 L46.54,110.90 L47.04,109.94 L47.54,109.00 L48.04,108.08 L48.54,107.19 L49.04,106.31 L49.54,105.46 L50.04,104.63 L50.54,103.83 L51.05,103.05 L51.55,102.29 L52.05,101.56 L52.55,100.86 L53.05,100.18 L53.55,99.53 L54.05,98.90 L54.55,98.30 L55.05,97.73 L55.55,97.18 L56.05,96.66 L56.55,96.17 L57.05,95.70 L57.55,95.26 L58.05,94.85 L58.55,94.46 L59.06,94.09 L59.56,93.75 L60.06,93.43 L60.56,93.14 L61.06,92.87 L61.56,92.62 L62.06,92.39 L62.56,92.18 L63.06,91.99 L63.56,91.82 L64.06,91.67 L64.56,91.54 L65.06,91.42 L65.56,91.32 L66.06,91.24 L66.56,91.16 L67.07,91.10 L67.57,91.05 L68.07,91.01 L68.57,90.98 L69.07,90.96 L69.57,90.94 L70.07,90.93 L70.57,90.92 L71.07,90.92 L71.57,90.92 L72.07,90.92 L72.57,90.92 L73.07,90.92 L73.57,90.91 L74.07,90.90 L74.57,90.89 L75.07,90.87 L75.58,90.84 L76.08,90.81 L76.58,90.76 L77.08,90.70 L77.58,90.64 L78.08,90.56 L78.58,90.46 L79.08,90.35 L79.58,90.22 L80.08,90.08 L80.58,89.92 L81.08,89.74 L81.58,89.54 L82.08,89.32 L82.58,89.08 L83.08,88.82 L83.59,88.54 L84.09,88.23 L84.59,87.90 L85.09,87.54 L85.59,87.16 L86.09,86.76 L86.59,86.33 L87.09,85.87 L87.59,85.39 L88.09,84.88 L88.59,84.35 L89.09,83.79 L89.59,83.20 L90.09,82.58 L90.59,81.94 L91.09,81.28 L91.60,80.58 L92.10,79.87 L92.60,79.12 L93.10,78.35 L93.60,77.56 L94.10,76.74 L94.60,75.90 L95.10,75.03 L95.60,74.14 L96.10,73.23 L96.60,72.30 L97.10,71.35 L97.60,70.38 L98.10,69.39 L98.60,68.39 L99.10,67.36 L99.60,66.33 L100.11,65.27 L100.61,64.21 L101.11,63.13 L101.61,62.04 L102.11,60.94 L102.61,59.84 L103.11,58.73 L103.61,57.61 L104.11,56.48 L104.61,55.36 L105.11,54.23 L105.61,53.11 L106.11,51.98 L106.61,50.86 L107.11,49.75 L107.61,48.64 L108.12,47.54 L108.62,46.44 L109.12,45.36 L109.62,44.30 L110.12,43.24 L110.62,42.21 L111.12,41.19 L111.62,40.19 L112.12,39.21 L112.62,38.25 L113.12,37.32 L113.62,36.41 L114.12,35.53 L114.62,34.68 L115.12,33.86 L115.62,33.07 L116.13,32.31 L116.63,31.59 L117.13,30.90 L117.63,30.25 L118.13,29.64 L118.63,29.07 L119.13,28.54 L119.63,28.05 L120.13,27.61 L120.63,27.21 L121.13,26.85 L121.63,26.55 L122.13,26.29 L122.63,26.08 L123.13,25.91 L123.63,25.80 L124.13,25.74 L124.64,25.73 L125.14,25.77 L125.64,25.87 L126.14,26.01 L126.64,26.21 L127.14,26.47 L127.64,26.78 L128.14,27.14 L128.64,27.56 L129.14,28.03 L129.64,28.56 L130.14,29.14 L130.64,29.78 L131.14,30.47 L131.64,31.22 L132.14,32.01 L132.65,32.87 L133.15,33.77 L133.65,34.73 L134.15,35.74 L134.65,36.80 L135.15,37.91 L135.65,39.06 L136.15,40.27 L136.65,41.53 L137.15,42.83 L137.65,44.18 L138.15,45.57 L138.65,47.01 L139.15,48.48 L139.65,50.00 L140.15,51.56 L140.66,53.16 L141.16,54.79 L141.66,56.46 L142.16,58.16 L142.66,59.89 L143.16,61.66 L143.66,63.45 L144.16,65.27 L144.66,67.12 L145.16,68.98 L145.66,70.87 L146.16,72.78 L146.66,74.71 L147.16,76.66 L147.66,78.61 L148.16,80.58 L148.67,82.56 L149.17,84.55 L149.67,86.55 L150.17,88.55 L150.67,90.55 L151.17,92.55 L151.67,94.55 L152.17,96.55 L152.67,98.54 L153.17,100.53 L153.67,102.50 L154.17,104.46 L154.67,106.41 L155.17,108.35 L155.67,110.26 L156.17,112.16 L156.67,114.04 L157.18,115.89 L157.68,117.72 L158.18,119.52 L158.68,121.30 L159.18,123.04 L159.68,124.76 L160.18,126.44 L160.68,128.08 L161.18,129.69 L161.68,131.27 L162.18,132.80 L162.68,134.29 L163.18,135.74 L163.68,137.15 L164.18,138.52 L164.68,139.84 L165.19,141.11 L165.69,142.33 L166.19,143.51 L166.69,144.64 L167.19,145.72 L167.69,146.75 L168.19,147.72 L168.69,148.65 L169.19,149.52 L169.69,150.34 L170.19,151.10 L170.69,151.81 L171.19,152.47 L171.69,153.07 L172.19,153.62 L172.69,154.11 L173.20,154.55 L173.70,154.93 L174.20,155.26 L174.70,155.54 L175.20,155.76 L175.70,155.92 L176.20,156.04 L176.70,156.10 L177.20,156.11 L177.70,156.07 L178.20,155.97 L178.70,155.83 L179.20,155.64 L179.70,155.39 L180.20,155.10 L180.70,154.77 L181.20,154.38 L181.71,153.95 L182.21,153.48 L182.71,152.97 L183.21,152.41 L183.71,151.82 L184.21,151.18 L184.71,150.51 L185.21,149.80 L185.71,149.06 L186.21,148.28 L186.71,147.47 L187.21,146.63 L187.71,145.76 L188.21,144.86 L188.71,143.94 L189.21,142.99 L189.72,142.02 L190.22,141.02 L190.72,140.01 L191.22,138.98 L191.72,137.93 L192.22,136.87 L192.72,135.79 L193.22,134.71 L193.72,133.61 L194.22,132.50 L194.72,131.39 L195.22,130.27 L195.72,129.15 L196.22,128.02 L196.72,126.89 L197.22,125.77 L197.73,124.65 L198.23,123.53 L198.73,122.41 L199.23,121.30 L199.73,120.20 L200.23,119.11 L200.73,118.03 L201.23,116.96 L201.73,115.90 L202.23,114.86 L202.73,113.83 L203.23,112.81 L203.73,111.82 L204.23,110.84 L204.73,109.88 L205.23,108.95 L205.73,108.03 L206.24,107.13 L206.74,106.26 L207.24,105.41 L207.74,104.58 L208.24,103.78 L208.74,103.00 L209.24,102.24 L209.74,101.52 L210.24,100.81 L210.74,100.14 L211.24,99.49 L211.74,98.86 L212.24,98.27 L212.74,97.70 L213.24,97.15 L213.74,96.63 L214.25,96.14 L214.75,95.68 L215.25,95.24 L215.75,94.82 L216.25,94.43 L216.75,94.07 L217.25,93.73 L217.75,93.41 L218.25,93.12 L218.75,92.85 L219.25,92.60 L219.75,92.37 L220.25,92.17 L220.75,91.98 L221.25,91.81 L221.75,91.67 L222.26,91.53 L222.76,91.42 L223.26,91.32 L223.76,91.23 L224.26,91.16 L224.76,91.10 L225.26,91.05 L225.76,91.01 L226.26,90.98 L226.76,90.96 L227.26,90.94 L227.76,90.93 L228.26,90.92 L228.76,90.92 L229.26,90.92 L229.76,90.92 L230.27,90.92 L230.77,90.92 L231.27,90.91 L231.77,90.90 L232.27,90.89 L232.77,90.87 L233.27,90.84 L233.77,90.80 L234.27,90.76 L234.77,90.70 L235.27,90.63 L235.77,90.55 L236.27,90.45 L236.77,90.34 L237.27,90.22 L237.77,90.07 L238.27,89.91 L238.78,89.73 L239.28,89.53 L239.78,89.31 L240.28,89.07 L240.78,88.80 L241.28,88.52 L241.78,88.21 L242.28,87.88 L242.78,87.52 L243.28,87.14 L243.78,86.73 L244.28,86.30 L244.78,85.84 L245.28,85.36 L245.78,84.85 L246.28,84.31 L246.79,83.75 L247.29,83.16 L247.79,82.55 L248.29,81.90 L248.79,81.23 L249.29,80.54 L249.79,79.82 L250.29,79.07 L250.79,78.30 L251.29,77.51 L251.79,76.69 L252.29,75.84 L252.79,74.98 L253.29,74.09 L253.79,73.18 L254.29,72.24 L254.80,71.29 L255.30,70.32 L255.80,69.33 L256.30,68.32 L256.80,67.30 L257.30,66.26 L257.80,65.21 L258.30,64.14 L258.80,63.06 L259.30,61.97 L259.80,60.88 L260.30,59.77 L260.80,58.66 L261.30,57.54 L261.80,56.41 L262.30,55.29 L262.80,54.16 L263.31,53.04 L263.81,51.91 L264.31,50.79 L264.81,49.68 L265.31,48.57 L265.81,47.47 L266.31,46.38 L266.81,45.30 L267.31,44.23 L267.81,43.18 L268.31,42.14 L268.81,41.12 L269.31,40.12 L269.81,39.15 L270.31,38.19 L270.81,37.26 L271.32,36.35 L271.82,35.48 L272.32,34.63 L272.82,33.81 L273.32,33.02 L273.82,32.26 L274.32,31.54 L274.82,30.86 L275.32,30.21 L275.82,29.60 L276.32,29.04 L276.82,28.51 L277.32,28.02 L277.82,27.58 L278.32,27.19 L278.82,26.83 L279.33,26.53 L279.83,26.27 L280.33,26.06 L280.83,25.90 L281.33,25.80 L281.83,25.74 L282.33,25.73 L282.83,25.78 L283.33,25.87 L283.83,26.02 L284.33,26.23 L284.83,26.49 L285.33,26.80 L285.83,27.17 L286.33,27.59 L286.83,28.06 L287.33,28.60 L287.84,29.18 L288.34,29.82 L288.84,30.52 L289.34,31.26 L289.84,32.07 L290.34,32.92 L290.84,33.83 L291.34,34.79 L291.84,35.80 L292.34,36.86 L292.84,37.98 L293.34,39.14 L293.84,40.35 L294.34,41.61 L294.84,42.91 L295.34,44.26 L295.85,45.66 L296.35,47.10 L296.85,48.58 L297.35,50.10 L297.85,51.66 L298.35,53.26 L298.85,54.89 L299.35,56.56 L299.85,58.27 L300.35,60.00 L300.85,61.77 L301.35,63.56 L301.85,65.38 L302.35,67.23 L302.85,69.10 L303.35,70.99 L303.86,72.90 L304.36,74.83 L304.86,76.78 L305.36,78.74 L305.86,80.71 L306.36,82.69 L306.86,84.68 L307.36,86.67 L307.86,88.67 L308.36,90.67 L308.86,92.68 L309.36,94.68 L309.86,96.67 L310.36,98.67 L310.86,100.65 L311.36,102.62 L311.87,104.58 L312.37,106.53 L312.87,108.47 L313.37,110.38 L313.87,112.28 L314.37,114.15 L314.87,116.01 L315.37,117.83 L315.87,119.63 L316.37,121.41 L316.87,123.15 L317.37,124.86 L317.87,126.54 L318.37,128.18 L318.87,129.79 L319.37,131.36 L319.87,132.89 L320.38,134.38 L320.88,135.83 L321.38,137.24 L321.88,138.60 L322.38,139.92 L322.88,141.19 L323.38,142.41 L323.88,143.58 L324.38,144.71 L324.88,145.78 L325.38,146.81 L325.88,147.78 L326.38,148.70 L326.88,149.57 L327.38,150.38 L327.88,151.15 L328.39,151.85 L328.89,152.51 L329.39,153.10 L329.89,153.65 L330.39,154.14 L330.89,154.57 L331.39,154.95 L331.89,155.28 L332.39,155.55 L332.89,155.77 L333.39,155.93 L333.89,156.04 L334.39,156.10 L334.89,156.11 L335.39,156.06 L335.89,155.97 L336.40,155.82 L336.90,155.62 L337.40,155.38 L337.90,155.08 L338.40,154.74 L338.90,154.36 L339.40,153.93 L339.90,153.45 L340.40,152.94 L340.90,152.38 L341.40,151.78 L341.90,151.14 L342.40,150.47 L342.90,149.75 L343.40,149.01 L343.90,148.23 L344.40,147.42 L344.91,146.57 L345.41,145.70 L345.91,144.80 L346.41,143.88 L346.91,142.93 L347.41,141.96 L347.91,140.96 L348.41,139.95 L348.91,138.92 L349.41,137.87 L349.91,136.80 L350.41,135.73 L350.91,134.64 L351.41,133.54 L351.91,132.43 L352.41,131.32 L352.92,130.20 L353.42,129.08 L353.92,127.95 L354.42,126.82 L354.92,125.70 L355.42,124.58 L355.92,123.46 L356.42,122.34 L356.92,121.23 L357.42,120.13 L357.92,119.04 L358.42,117.96 L358.92,116.89 L359.42,115.83 L359.92,114.79 L360.42,113.76 L360.93,112.75 L361.43,111.76 L361.93,110.78 L362.43,109.82 L362.93,108.89 L363.43,107.97 L363.93,107.08 L364.43,106.20 L364.93,105.36 L365.43,104.53 L365.93,103.73 L366.43,102.95 L366.93,102.20 L367.43,101.47 L367.93,100.77 L368.43,100.10 L368.93,99.45 L369.44,98.83 L369.94,98.23 L370.44,97.66 L370.94,97.12 L371.44,96.60 L371.94,96.11 L372.44,95.65 L372.94,95.21 L373.44,94.80 L373.94,94.41 L374.44,94.05 L374.94,93.71 L375.44,93.39 L375.94,93.10 L376.44,92.83 L376.94,92.59 L377.45,92.36 L377.95,92.16 L378.45,91.97 L378.95,91.80 L379.45,91.66 L379.95,91.53 L380.45,91.41 L380.95,91.31 L381.45,91.23 L381.95,91.15 L382.45,91.09 L382.95,91.04 L383.45,91.01 L383.95,90.98 L384.45,90.95 L384.95,90.94 L385.46,90.93 L385.96,90.92 L386.46,90.92 L386.96,90.92 L387.46,90.92 L387.96,90.92 L388.46,90.92 L388.96,90.91 L389.46,90.90 L389.96,90.89 L390.46,90.87 L390.96,90.84 L391.46,90.80 L391.96,90.75 L392.46,90.70 L392.96,90.63 L393.47,90.54 L393.97,90.45 L394.47,90.34 L394.97,90.21 L395.47,90.06 L395.97,89.90 L396.47,89.72 L396.97,89.52 L397.47,89.29 L397.97,89.05 L398.47,88.79 L398.97,88.50 L399.47,88.19 L399.97,87.86 L400.47,87.50 L400.97,87.11 L401.47,86.71 L401.98,86.27 L402.48,85.81 L402.98,85.33 L403.48,84.82 L403.98,84.28 L404.48,83.71 L404.98,83.12 L405.48,82.51 L405.98,81.86 L406.48,81.19 L406.98,80.50 L407.48,79.77 L407.98,79.03 L408.48,78.25 L408.98,77.46 L409.48,76.64 L409.99,75.79 L410.49,74.92 L410.99,74.03 L411.49,73.12 L411.99,72.19 L412.49,71.23 L412.99,70.26 L413.49,69.27 L413.99,68.26 L414.49,67.24 L414.99,66.20 L415.49,65.14 L415.99,64.07 L416.49,63.00 L416.99,61.91 L417.49,60.81 L418.00,59.70 L418.50,58.59 L419.00,57.47 L419.50,56.34 L420.00,55.22 L420.50,54.09 L421.00,52.97 L421.50,51.84 L422.00,50.72" style="stroke-width: 2; stroke: rgb(0, 0, 0); stroke-opacity: 0.2;"/><path d=" M14.00,163.06 L14.50,162.79 L15.00,162.43 L15.50,161.99 L16.00,161.47 L16.50,160.87 L17.00,160.20 L17.50,159.46 L18.00,158.64 L18.51,157.77 L19.01,156.84 L19.51,155.85 L20.01,154.81 L20.51,153.72 L21.01,152.59 L21.51,151.43 L22.01,150.23 L22.51,149.00 L23.01,147.74 L23.51,146.47 L24.01,145.18 L24.51,143.87 L25.01,142.56 L25.51,141.24 L26.01,139.93 L26.52,138.61 L27.02,137.31 L27.52,136.01 L28.02,134.73 L28.52,133.47 L29.02,132.23 L29.52,131.01 L30.02,129.82 L30.52,128.66 L31.02,127.53 L31.52,126.44 L32.02,125.38 L32.52,124.36 L33.02,123.38 L33.52,122.44 L34.02,121.54 L34.53,120.69 L35.03,119.88 L35.53,119.12 L36.03,118.40 L36.53,117.73 L37.03,117.11 L37.53,116.53 L38.03,116.00 L38.53,115.51 L39.03,115.06 L39.53,114.66 L40.03,114.30 L40.53,113.98 L41.03,113.70 L41.53,113.46 L42.03,113.26 L42.53,113.09 L43.04,112.95 L43.54,112.84 L44.04,112.75 L44.54,112.70 L45.04,112.66 L45.54,112.65 L46.04,112.66 L46.54,112.68 L47.04,112.71 L47.54,112.75 L48.04,112.80 L48.54,112.85 L49.04,112.91 L49.54,112.97 L50.04,113.02 L50.54,113.06 L51.05,113.10 L51.55,113.13 L52.05,113.14 L52.55,113.14 L53.05,113.12 L53.55,113.08 L54.05,113.01 L54.55,112.93 L55.05,112.81 L55.55,112.67 L56.05,112.50 L56.55,112.30 L57.05,112.07 L57.55,111.81 L58.05,111.51 L58.55,111.18 L59.06,110.81 L59.56,110.41 L60.06,109.97 L60.56,109.49 L61.06,108.98 L61.56,108.44 L62.06,107.86 L62.56,107.24 L63.06,106.59 L63.56,105.91 L64.06,105.19 L64.56,104.44 L65.06,103.67 L65.56,102.86 L66.06,102.03 L66.56,101.17 L67.07,100.29 L67.57,99.39 L68.07,98.46 L68.57,97.52 L69.07,96.57 L69.57,95.60 L70.07,94.62 L70.57,93.63 L71.07,92.64 L71.57,91.64 L72.07,90.63 L72.57,89.63 L73.07,88.64 L73.57,87.65 L74.07,86.66 L74.57,85.69 L75.07,84.73 L75.58,83.78 L76.08,82.85 L76.58,81.94 L77.08,81.05 L77.58,80.18 L78.08,79.33 L78.58,78.52 L79.08,77.73 L79.58,76.97 L80.08,76.24 L80.58,75.54 L81.08,74.88 L81.58,74.24 L82.08,73.65 L82.58,73.09 L83.08,72.56 L83.59,72.07 L84.09,71.62 L84.59,71.20 L85.09,70.81 L85.59,70.47 L86.09,70.15 L86.59,69.88 L87.09,69.63 L87.59,69.42 L88.09,69.23 L88.59,69.08 L89.09,68.96 L89.59,68.86 L90.09,68.79 L90.59,68.74 L91.09,68.71 L91.60,68.70 L92.10,68.70 L92.60,68.72 L93.10,68.76 L93.60,68.80 L94.10,68.85 L94.60,68.90 L95.10,68.96 L95.60,69.02 L96.10,69.07 L96.60,69.11 L97.10,69.15 L97.60,69.18 L98.10,69.19 L98.60,69.18 L99.10,69.16 L99.60,69.11 L100.11,69.04 L100.61,68.94 L101.11,68.82 L101.61,68.66 L102.11,68.47 L102.61,68.24 L103.11,67.98 L103.61,67.68 L104.11,67.34 L104.61,66.95 L105.11,66.53 L105.61,66.06 L106.11,65.54 L106.61,64.99 L107.11,64.38 L107.61,63.73 L108.12,63.03 L108.62,62.29 L109.12,61.50 L109.62,60.67 L110.12,59.79 L110.62,58.87 L111.12,57.91 L111.62,56.91 L112.12,55.86 L112.62,54.78 L113.12,53.67 L113.62,52.52 L114.12,51.34 L114.62,50.14 L115.12,48.91 L115.62,47.65 L116.13,46.38 L116.63,45.09 L117.13,43.79 L117.63,42.48 L118.13,41.16 L118.63,39.85 L119.13,38.53 L119.63,37.22 L120.13,35.93 L120.63,34.64 L121.13,33.38 L121.63,32.14 L122.13,30.93 L122.63,29.74 L123.13,28.60 L123.63,27.49 L124.13,26.43 L124.64,25.42 L125.14,24.47 L125.64,23.56 L126.14,22.73 L126.64,21.95 L127.14,21.25 L127.64,20.61 L128.14,20.06 L128.64,19.58 L129.14,19.19 L129.64,18.89 L130.14,18.67 L130.64,18.54 L131.14,18.51 L131.64,18.58 L132.14,18.74 L132.65,19.01 L133.15,19.38 L133.65,19.85 L134.15,20.43 L134.65,21.11 L135.15,21.90 L135.65,22.80 L136.15,23.80 L136.65,24.91 L137.15,26.13 L137.65,27.45 L138.15,28.88 L138.65,30.41 L139.15,32.04 L139.65,33.77 L140.15,35.59 L140.66,37.52 L141.16,39.53 L141.66,41.64 L142.16,43.83 L142.66,46.11 L143.16,48.46 L143.66,50.89 L144.16,53.40 L144.66,55.97 L145.16,58.60 L145.66,61.30 L146.16,64.04 L146.66,66.84 L147.16,69.68 L147.66,72.56 L148.16,75.48 L148.67,78.42 L149.17,81.38 L149.67,84.37 L150.17,87.36 L150.67,90.37 L151.17,93.37 L151.67,96.37 L152.17,99.36 L152.67,102.33 L153.17,105.28 L153.67,108.21 L154.17,111.10 L154.67,113.95 L155.17,116.77 L155.67,119.53 L156.17,122.25 L156.67,124.91 L157.18,127.50 L157.68,130.03 L158.18,132.49 L158.68,134.87 L159.18,137.18 L159.68,139.40 L160.18,141.54 L160.68,143.59 L161.18,145.55 L161.68,147.41 L162.18,149.18 L162.68,150.84 L163.18,152.41 L163.68,153.87 L164.18,155.24 L164.68,156.49 L165.19,157.64 L165.69,158.68 L166.19,159.62 L166.69,160.45 L167.19,161.17 L167.69,161.79 L168.19,162.30 L168.69,162.70 L169.19,163.01 L169.69,163.21 L170.19,163.31 L170.69,163.32 L171.19,163.23 L171.69,163.04 L172.19,162.77 L172.69,162.41 L173.20,161.96 L173.70,161.44 L174.20,160.83 L174.70,160.16 L175.20,159.41 L175.70,158.59 L176.20,157.71 L176.70,156.78 L177.20,155.78 L177.70,154.74 L178.20,153.65 L178.70,152.52 L179.20,151.35 L179.70,150.15 L180.20,148.92 L180.70,147.66 L181.20,146.39 L181.71,145.09 L182.21,143.79 L182.71,142.48 L183.21,141.16 L183.71,139.84 L184.21,138.53 L184.71,137.23 L185.21,135.93 L185.71,134.65 L186.21,133.39 L186.71,132.15 L187.21,130.94 L187.71,129.75 L188.21,128.59 L188.71,127.46 L189.21,126.37 L189.72,125.31 L190.22,124.30 L190.72,123.32 L191.22,122.38 L191.72,121.49 L192.22,120.64 L192.72,119.83 L193.22,119.07 L193.72,118.36 L194.22,117.69 L194.72,117.07 L195.22,116.50 L195.72,115.96 L196.22,115.48 L196.72,115.04 L197.22,114.64 L197.73,114.28 L198.23,113.97 L198.73,113.69 L199.23,113.45 L199.73,113.25 L200.23,113.08 L200.73,112.94 L201.23,112.83 L201.73,112.75 L202.23,112.70 L202.73,112.66 L203.23,112.65 L203.73,112.66 L204.23,112.68 L204.73,112.71 L205.23,112.75 L205.73,112.80 L206.24,112.86 L206.74,112.91 L207.24,112.97 L207.74,113.02 L208.24,113.07 L208.74,113.10 L209.24,113.13 L209.74,113.14 L210.24,113.14 L210.74,113.12 L211.24,113.07 L211.74,113.01 L212.24,112.92 L212.74,112.81 L213.24,112.66 L213.74,112.49 L214.25,112.29 L214.75,112.06 L215.25,111.79 L215.75,111.49 L216.25,111.16 L216.75,110.79 L217.25,110.38 L217.75,109.94 L218.25,109.46 L218.75,108.95 L219.25,108.40 L219.75,107.82 L220.25,107.20 L220.75,106.55 L221.25,105.86 L221.75,105.14 L222.26,104.39 L222.76,103.62 L223.26,102.81 L223.76,101.97 L224.26,101.12 L224.76,100.23 L225.26,99.33 L225.76,98.41 L226.26,97.46 L226.76,96.51 L227.26,95.54 L227.76,94.56 L228.26,93.57 L228.76,92.57 L229.26,91.57 L229.76,90.57 L230.27,89.57 L230.77,88.58 L231.27,87.58 L231.77,86.60 L232.27,85.63 L232.77,84.67 L233.27,83.72 L233.77,82.79 L234.27,81.88 L234.77,80.99 L235.27,80.12 L235.77,79.28 L236.27,78.47 L236.77,77.68 L237.27,76.92 L237.77,76.19 L238.27,75.50 L238.78,74.84 L239.28,74.21 L239.78,73.61 L240.28,73.05 L240.78,72.53 L241.28,72.04 L241.78,71.59 L242.28,71.17 L242.78,70.79 L243.28,70.45 L243.78,70.14 L244.28,69.86 L244.78,69.62 L245.28,69.40 L245.78,69.22 L246.28,69.07 L246.79,68.95 L247.29,68.85 L247.79,68.78 L248.29,68.73 L248.79,68.71 L249.29,68.70 L249.79,68.70 L250.29,68.73 L250.79,68.76 L251.29,68.80 L251.79,68.85 L252.29,68.91 L252.79,68.96 L253.29,69.02 L253.79,69.07 L254.29,69.12 L254.80,69.15 L255.30,69.18 L255.80,69.19 L256.30,69.18 L256.80,69.16 L257.30,69.11 L257.80,69.04 L258.30,68.94 L258.80,68.81 L259.30,68.65 L259.80,68.46 L260.30,68.23 L260.80,67.96 L261.30,67.66 L261.80,67.31 L262.30,66.93 L262.80,66.50 L263.31,66.03 L263.81,65.51 L264.31,64.95 L264.81,64.34 L265.31,63.69 L265.81,62.99 L266.31,62.24 L266.81,61.45 L267.31,60.62 L267.81,59.74 L268.31,58.81 L268.81,57.85 L269.31,56.84 L269.81,55.80 L270.31,54.72 L270.81,53.60 L271.32,52.45 L271.82,51.27 L272.32,50.06 L272.82,48.83 L273.32,47.57 L273.82,46.30 L274.32,45.01 L274.82,43.71 L275.32,42.40 L275.82,41.08 L276.32,39.76 L276.82,38.45 L277.32,37.14 L277.82,35.85 L278.32,34.56 L278.82,33.30 L279.33,32.06 L279.83,30.85 L280.33,29.67 L280.83,28.53 L281.33,27.43 L281.83,26.37 L282.33,25.36 L282.83,24.41 L283.33,23.51 L283.83,22.68 L284.33,21.91 L284.83,21.21 L285.33,20.58 L285.83,20.03 L286.33,19.56 L286.83,19.17 L287.33,18.87 L287.84,18.66 L288.34,18.54 L288.84,18.51 L289.34,18.59 L289.84,18.76 L290.34,19.03 L290.84,19.41 L291.34,19.89 L291.84,20.47 L292.34,21.16 L292.84,21.96 L293.34,22.86 L293.84,23.87 L294.34,24.98 L294.84,26.21 L295.34,27.54 L295.85,28.97 L296.35,30.50 L296.85,32.14 L297.35,33.88 L297.85,35.71 L298.35,37.64 L298.85,39.66 L299.35,41.77 L299.85,43.97 L300.35,46.25 L300.85,48.61 L301.35,51.05 L301.85,53.56 L302.35,56.13 L302.85,58.77 L303.35,61.47 L303.86,64.22 L304.36,67.02 L304.86,69.86 L305.36,72.74 L305.86,75.66 L306.36,78.60 L306.86,81.57 L307.36,84.55 L307.86,87.55 L308.36,90.55 L308.86,93.56 L309.36,96.55 L309.86,99.54 L310.36,102.51 L310.86,105.46 L311.36,108.39 L311.87,111.28 L312.37,114.13 L312.87,116.94 L313.37,119.70 L313.87,122.42 L314.37,125.07 L314.87,127.66 L315.37,130.18 L315.87,132.64 L316.37,135.02 L316.87,137.32 L317.37,139.54 L317.87,141.67 L318.37,143.71 L318.87,145.66 L319.37,147.52 L319.87,149.28 L320.38,150.94 L320.88,152.50 L321.38,153.96 L321.88,155.32 L322.38,156.56 L322.88,157.71 L323.38,158.74 L323.88,159.67 L324.38,160.50 L324.88,161.21 L325.38,161.82 L325.88,162.33 L326.38,162.73 L326.88,163.02 L327.38,163.22 L327.88,163.32 L328.39,163.31 L328.89,163.22 L329.39,163.03 L329.89,162.75 L330.39,162.38 L330.89,161.93 L331.39,161.40 L331.89,160.79 L332.39,160.11 L332.89,159.36 L333.39,158.54 L333.89,157.66 L334.39,156.71 L334.89,155.72 L335.39,154.67 L335.89,153.58 L336.40,152.45 L336.90,151.28 L337.40,150.07 L337.90,148.84 L338.40,147.58 L338.90,146.31 L339.40,145.01 L339.90,143.71 L340.40,142.40 L340.90,141.08 L341.40,139.76 L341.90,138.45 L342.40,137.15 L342.90,135.85 L343.40,134.57 L343.90,133.31 L344.40,132.08 L344.91,130.86 L345.41,129.68 L345.91,128.52 L346.41,127.39 L346.91,126.30 L347.41,125.25 L347.91,124.23 L348.41,123.26 L348.91,122.32 L349.41,121.43 L349.91,120.59 L350.41,119.79 L350.91,119.03 L351.41,118.32 L351.91,117.65 L352.41,117.03 L352.92,116.46 L353.42,115.93 L353.92,115.45 L354.42,115.01 L354.92,114.61 L355.42,114.26 L355.92,113.95 L356.42,113.67 L356.92,113.44 L357.42,113.23 L357.92,113.07 L358.42,112.93 L358.92,112.82 L359.42,112.75 L359.92,112.69 L360.42,112.66 L360.93,112.65 L361.43,112.66 L361.93,112.68 L362.43,112.71 L362.93,112.76 L363.43,112.81 L363.93,112.86 L364.43,112.92 L364.93,112.97 L365.43,113.02 L365.93,113.07 L366.43,113.11 L366.93,113.13 L367.43,113.14 L367.93,113.14 L368.43,113.11 L368.93,113.07 L369.44,113.00 L369.94,112.91 L370.44,112.80 L370.94,112.65 L371.44,112.48 L371.94,112.28 L372.44,112.04 L372.94,111.77 L373.44,111.47 L373.94,111.13 L374.44,110.76 L374.94,110.36 L375.44,109.91 L375.94,109.43 L376.44,108.92 L376.94,108.37 L377.45,107.78 L377.95,107.16 L378.45,106.51 L378.95,105.82 L379.45,105.10 L379.95,104.35 L380.45,103.57 L380.95,102.76 L381.45,101.92 L381.95,101.06 L382.45,100.18 L382.95,99.27 L383.45,98.35 L383.95,97.41 L384.45,96.45 L384.95,95.48 L385.46,94.50 L385.96,93.51 L386.46,92.51 L386.96,91.51 L387.46,90.51 L387.96,89.51 L388.46,88.51 L388.96,87.52 L389.46,86.54 L389.96,85.57 L390.46,84.61 L390.96,83.66 L391.46,82.73 L391.96,81.82 L392.46,80.94 L392.96,80.07 L393.47,79.23 L393.97,78.42 L394.47,77.63 L394.97,76.88 L395.47,76.15 L395.97,75.46 L396.47,74.80 L396.97,74.17 L397.47,73.58 L397.97,73.02 L398.47,72.50 L398.97,72.01 L399.47,71.56 L399.97,71.15 L400.47,70.77 L400.97,70.43 L401.47,70.12 L401.98,69.84 L402.48,69.60 L402.98,69.39 L403.48,69.21 L403.98,69.06 L404.48,68.94 L404.98,68.85 L405.48,68.78 L405.98,68.73 L406.48,68.70 L406.98,68.70 L407.48,68.71 L407.98,68.73 L408.48,68.76 L408.98,68.81 L409.48,68.86 L409.99,68.91 L410.49,68.97 L410.99,69.02 L411.49,69.07 L411.99,69.12 L412.49,69.15 L412.99,69.18 L413.49,69.19 L413.99,69.18 L414.49,69.15 L414.99,69.10 L415.49,69.03 L415.99,68.93 L416.49,68.80 L416.99,68.64 L417.49,68.44 L418.00,68.21 L418.50,67.94 L419.00,67.64 L419.50,67.29 L420.00,66.90 L420.50,66.47 L421.00,66.00 L421.50,65.48 L422.00,64.91" style="stroke-width: 2; stroke: rgb(0, 0, 0); stroke-opacity: 0.4;"/><path d=" M14.00,160.68 L14.50,159.44 L15.00,158.13 L15.50,156.77 L16.00,155.35 L16.50,153.90 L17.00,152.42 L17.50,150.91 L18.00,149.39 L18.51,147.87 L19.01,146.36 L19.51,144.85 L20.01,143.37 L20.51,141.91 L21.01,140.48 L21.51,139.09 L22.01,137.75 L22.51,136.45 L23.01,135.22 L23.51,134.04 L24.01,132.92 L24.51,131.87 L25.01,130.89 L25.51,129.97 L26.01,129.13 L26.52,128.36 L27.02,127.67 L27.52,127.04 L28.02,126.49 L28.52,126.01 L29.02,125.60 L29.52,125.25 L30.02,124.96 L30.52,124.74 L31.02,124.57 L31.52,124.46 L32.02,124.40 L32.52,124.38 L33.02,124.40 L33.52,124.45 L34.02,124.54 L34.53,124.65 L35.03,124.77 L35.53,124.92 L36.03,125.07 L36.53,125.22 L37.03,125.38 L37.53,125.53 L38.03,125.66 L38.53,125.78 L39.03,125.88 L39.53,125.95 L40.03,125.99 L40.53,126.00 L41.03,125.97 L41.53,125.90 L42.03,125.79 L42.53,125.63 L43.04,125.42 L43.54,125.17 L44.04,124.86 L44.54,124.50 L45.04,124.09 L45.54,123.63 L46.04,123.11 L46.54,122.55 L47.04,121.93 L47.54,121.27 L48.04,120.55 L48.54,119.80 L49.04,119.00 L49.54,118.16 L50.04,117.28 L50.54,116.38 L51.05,115.44 L51.55,114.48 L52.05,113.49 L52.55,112.49 L53.05,111.47 L53.55,110.44 L54.05,109.41 L54.55,108.38 L55.05,107.35 L55.55,106.32 L56.05,105.31 L56.55,104.31 L57.05,103.34 L57.55,102.38 L58.05,101.45 L58.55,100.56 L59.06,99.69 L59.56,98.86 L60.06,98.07 L60.56,97.31 L61.06,96.60 L61.56,95.93 L62.06,95.31 L62.56,94.73 L63.06,94.20 L63.56,93.71 L64.06,93.27 L64.56,92.87 L65.06,92.52 L65.56,92.20 L66.06,91.93 L66.56,91.70 L67.07,91.51 L67.57,91.35 L68.07,91.22 L68.57,91.12 L69.07,91.04 L69.57,90.99 L70.07,90.95 L70.57,90.93 L71.07,90.92 L71.57,90.92 L72.07,90.92 L72.57,90.92 L73.07,90.91 L73.57,90.90 L74.07,90.87 L74.57,90.82 L75.07,90.76 L75.58,90.67 L76.08,90.55 L76.58,90.40 L77.08,90.23 L77.58,90.01 L78.08,89.76 L78.58,89.46 L79.08,89.13 L79.58,88.75 L80.08,88.33 L80.58,87.86 L81.08,87.34 L81.58,86.78 L82.08,86.18 L82.58,85.53 L83.08,84.84 L83.59,84.10 L84.09,83.33 L84.59,82.51 L85.09,81.66 L85.59,80.78 L86.09,79.86 L86.59,78.92 L87.09,77.95 L87.59,76.96 L88.09,75.95 L88.59,74.94 L89.09,73.91 L89.59,72.88 L90.09,71.84 L90.59,70.81 L91.09,69.79 L91.60,68.78 L92.10,67.79 L92.60,66.81 L93.10,65.86 L93.60,64.94 L94.10,64.05 L94.60,63.20 L95.10,62.38 L95.60,61.61 L96.10,60.87 L96.60,60.19 L97.10,59.55 L97.60,58.96 L98.10,58.43 L98.60,57.94 L99.10,57.51 L99.60,57.13 L100.11,56.80 L100.61,56.52 L101.11,56.29 L101.61,56.12 L102.11,55.98 L102.61,55.90 L103.11,55.85 L103.61,55.84 L104.11,55.87 L104.61,55.93 L105.11,56.01 L105.61,56.12 L106.11,56.25 L106.61,56.40 L107.11,56.55 L107.61,56.70 L108.12,56.86 L108.62,57.00 L109.12,57.14 L109.62,57.26 L110.12,57.35 L110.62,57.42 L111.12,57.46 L111.62,57.46 L112.12,57.41 L112.62,57.32 L113.12,57.18 L113.62,56.98 L114.12,56.72 L114.62,56.40 L115.12,56.02 L115.62,55.56 L116.13,55.04 L116.63,54.45 L117.13,53.78 L117.63,53.05 L118.13,52.24 L118.63,51.35 L119.13,50.40 L119.63,49.38 L120.13,48.29 L120.63,47.14 L121.13,45.93 L121.63,44.66 L122.13,43.33 L122.63,41.96 L123.13,40.55 L123.63,39.11 L124.13,37.63 L124.64,36.13 L125.14,34.62 L125.64,33.10 L126.14,31.58 L126.64,30.07 L127.14,28.58 L127.64,27.11 L128.14,25.68 L128.64,24.29 L129.14,22.95 L129.64,21.68 L130.14,20.48 L130.64,19.36 L131.14,18.33 L131.64,17.40 L132.14,16.57 L132.65,15.86 L133.15,15.27 L133.65,14.81 L134.15,14.49 L134.65,14.31 L135.15,14.28 L135.65,14.41 L136.15,14.69 L136.65,15.14 L137.15,15.76 L137.65,16.55 L138.15,17.52 L138.65,18.66 L139.15,19.98 L139.65,21.47 L140.15,23.14 L140.66,24.98 L141.16,27.00 L141.66,29.18 L142.16,31.53 L142.66,34.05 L143.16,36.72 L143.66,39.54 L144.16,42.50 L144.66,45.60 L145.16,48.83 L145.66,52.19 L146.16,55.65 L146.66,59.22 L147.16,62.88 L147.66,66.62 L148.16,70.43 L148.67,74.31 L149.17,78.23 L149.67,82.19 L150.17,86.18 L150.67,90.18 L151.17,94.18 L151.67,98.18 L152.17,102.15 L152.67,106.09 L153.17,109.98 L153.67,113.82 L154.17,117.59 L154.67,121.28 L155.17,124.88 L155.67,128.39 L156.17,131.78 L156.67,135.06 L157.18,138.21 L157.68,141.22 L158.18,144.10 L158.68,146.82 L159.18,149.40 L159.68,151.81 L160.18,154.05 L160.68,156.13 L161.18,158.04 L161.68,159.77 L162.18,161.33 L162.68,162.71 L163.18,163.92 L163.68,164.95 L164.18,165.80 L164.68,166.49 L165.19,167.00 L165.69,167.35 L166.19,167.53 L166.69,167.56 L167.19,167.43 L167.69,167.16 L168.19,166.75 L168.69,166.21 L169.19,165.54 L169.69,164.76 L170.19,163.86 L170.69,162.87 L171.19,161.78 L171.69,160.61 L172.19,159.36 L172.69,158.05 L173.20,156.68 L173.70,155.26 L174.20,153.81 L174.70,152.32 L175.20,150.82 L175.70,149.30 L176.20,147.78 L176.70,146.26 L177.20,144.76 L177.70,143.27 L178.20,141.82 L178.70,140.39 L179.20,139.01 L179.70,137.67 L180.20,136.38 L180.70,135.14 L181.20,133.97 L181.71,132.85 L182.21,131.81 L182.71,130.83 L183.21,129.92 L183.71,129.08 L184.21,128.32 L184.71,127.63 L185.21,127.01 L185.71,126.46 L186.21,125.98 L186.71,125.57 L187.21,125.23 L187.71,124.95 L188.21,124.73 L188.71,124.57 L189.21,124.46 L189.72,124.39 L190.22,124.38 L190.72,124.40 L191.22,124.46 L191.72,124.54 L192.22,124.65 L192.72,124.78 L193.22,124.93 L193.72,125.08 L194.22,125.23 L194.72,125.39 L195.22,125.53 L195.72,125.67 L196.22,125.79 L196.72,125.88 L197.22,125.95 L197.73,125.99 L198.23,126.00 L198.73,125.97 L199.23,125.89 L199.73,125.78 L200.23,125.62 L200.73,125.41 L201.23,125.15 L201.73,124.84 L202.23,124.48 L202.73,124.06 L203.23,123.60 L203.73,123.08 L204.23,122.51 L204.73,121.89 L205.23,121.22 L205.73,120.51 L206.24,119.75 L206.74,118.95 L207.24,118.11 L207.74,117.23 L208.24,116.32 L208.74,115.38 L209.24,114.41 L209.74,113.43 L210.24,112.42 L210.74,111.41 L211.24,110.38 L211.74,109.35 L212.24,108.31 L212.74,107.28 L213.24,106.26 L213.74,105.25 L214.25,104.25 L214.75,103.28 L215.25,102.32 L215.75,101.40 L216.25,100.50 L216.75,99.64 L217.25,98.81 L217.75,98.02 L218.25,97.27 L218.75,96.56 L219.25,95.89 L219.75,95.27 L220.25,94.70 L220.75,94.17 L221.25,93.68 L221.75,93.24 L222.26,92.85 L222.76,92.49 L223.26,92.19 L223.76,91.92 L224.26,91.69 L224.76,91.50 L225.26,91.34 L225.76,91.21 L226.26,91.11 L226.76,91.04 L227.26,90.99 L227.76,90.95 L228.26,90.93 L228.76,90.92 L229.26,90.92 L229.76,90.92 L230.27,90.92 L230.77,90.91 L231.27,90.89 L231.77,90.87 L232.27,90.82 L232.77,90.75 L233.27,90.66 L233.77,90.54 L234.27,90.39 L234.77,90.21 L235.27,90.00 L235.77,89.74 L236.27,89.44 L236.77,89.11 L237.27,88.72 L237.77,88.30 L238.27,87.83 L238.78,87.31 L239.28,86.75 L239.78,86.14 L240.28,85.49 L240.78,84.79 L241.28,84.06 L241.78,83.28 L242.28,82.46 L242.78,81.61 L243.28,80.72 L243.78,79.80 L244.28,78.86 L244.78,77.89 L245.28,76.90 L245.78,75.89 L246.28,74.87 L246.79,73.84 L247.29,72.81 L247.79,71.78 L248.29,70.75 L248.79,69.73 L249.29,68.72 L249.79,67.72 L250.29,66.75 L250.79,65.81 L251.29,64.89 L251.79,64.00 L252.29,63.15 L252.79,62.33 L253.29,61.56 L253.79,60.83 L254.29,60.15 L254.80,59.51 L255.30,58.93 L255.80,58.40 L256.30,57.91 L256.80,57.48 L257.30,57.11 L257.80,56.78 L258.30,56.51 L258.80,56.28 L259.30,56.11 L259.80,55.98 L260.30,55.89 L260.80,55.85 L261.30,55.84 L261.80,55.87 L262.30,55.93 L262.80,56.02 L263.31,56.13 L263.81,56.26 L264.31,56.40 L264.81,56.56 L265.31,56.71 L265.81,56.87 L266.31,57.01 L266.81,57.15 L267.31,57.27 L267.81,57.36 L268.31,57.43 L268.81,57.46 L269.31,57.45 L269.81,57.41 L270.31,57.31 L270.81,57.17 L271.32,56.96 L271.82,56.70 L272.32,56.38 L272.82,55.99 L273.32,55.53 L273.82,55.01 L274.32,54.41 L274.82,53.74 L275.32,53.00 L275.82,52.18 L276.32,51.30 L276.82,50.34 L277.32,49.31 L277.82,48.22 L278.32,47.07 L278.82,45.85 L279.33,44.57 L279.83,43.25 L280.33,41.88 L280.83,40.46 L281.33,39.02 L281.83,37.54 L282.33,36.04 L282.83,34.53 L283.33,33.01 L283.83,31.49 L284.33,29.98 L284.83,28.48 L285.33,27.02 L285.83,25.59 L286.33,24.20 L286.83,22.87 L287.33,21.61 L287.84,20.41 L288.34,19.29 L288.84,18.27 L289.34,17.34 L289.84,16.52 L290.34,15.82 L290.84,15.24 L291.34,14.79 L291.84,14.47 L292.34,14.30 L292.84,14.28 L293.34,14.42 L293.84,14.72 L294.34,15.18 L294.84,15.81 L295.34,16.61 L295.85,17.59 L296.35,18.74 L296.85,20.06 L297.35,21.57 L297.85,23.25 L298.35,25.10 L298.85,27.13 L299.35,29.32 L299.85,31.69 L300.35,34.21 L300.85,36.89 L301.35,39.72 L301.85,42.69 L302.35,45.80 L302.85,49.04 L303.35,52.40 L303.86,55.87 L304.36,59.44 L304.86,63.11 L305.36,66.85 L305.86,70.67 L306.36,74.55 L306.86,78.48 L307.36,82.44 L307.86,86.43 L308.36,90.43 L308.86,94.43 L309.36,98.43 L309.86,102.40 L310.36,106.33 L310.86,110.22 L311.36,114.06 L311.87,117.82 L312.37,121.51 L312.87,125.11 L313.37,128.60 L313.87,131.99 L314.37,135.26 L314.87,138.40 L315.37,141.41 L315.87,144.27 L316.37,146.99 L316.87,149.55 L317.37,151.95 L317.87,154.19 L318.37,156.26 L318.87,158.15 L319.37,159.88 L319.87,161.42 L320.38,162.79 L320.88,163.99 L321.38,165.01 L321.88,165.85 L322.38,166.52 L322.88,167.03 L323.38,167.36 L323.88,167.54 L324.38,167.56 L324.88,167.42 L325.38,167.14 L325.88,166.72 L326.38,166.17 L326.88,165.50 L327.38,164.71 L327.88,163.81 L328.39,162.80 L328.89,161.71 L329.39,160.53 L329.89,159.28 L330.39,157.97 L330.89,156.59 L331.39,155.17 L331.89,153.72 L332.39,152.23 L332.89,150.72 L333.39,149.21 L333.89,147.68 L334.39,146.17 L334.89,144.67 L335.39,143.18 L335.89,141.73 L336.40,140.30 L336.90,138.92 L337.40,137.58 L337.90,136.30 L338.40,135.07 L338.90,133.89 L339.40,132.79 L339.90,131.74 L340.40,130.77 L340.90,129.87 L341.40,129.03 L341.90,128.27 L342.40,127.59 L342.90,126.97 L343.40,126.43 L343.90,125.95 L344.40,125.55 L344.91,125.21 L345.41,124.93 L345.91,124.72 L346.41,124.56 L346.91,124.45 L347.41,124.39 L347.91,124.38 L348.41,124.40 L348.91,124.46 L349.41,124.55 L349.91,124.66 L350.41,124.79 L350.91,124.94 L351.41,125.09 L351.91,125.24 L352.41,125.40 L352.92,125.54 L353.42,125.68 L353.92,125.79 L354.42,125.89 L354.92,125.95 L355.42,125.99 L355.92,126.00 L356.42,125.96 L356.92,125.89 L357.42,125.77 L357.92,125.60 L358.42,125.39 L358.92,125.13 L359.42,124.82 L359.92,124.45 L360.42,124.04 L360.93,123.57 L361.43,123.05 L361.93,122.47 L362.43,121.85 L362.93,121.18 L363.43,120.46 L363.93,119.70 L364.43,118.90 L364.93,118.05 L365.43,117.17 L365.93,116.26 L366.43,115.32 L366.93,114.35 L367.43,113.37 L367.93,112.36 L368.43,111.34 L368.93,110.31 L369.44,109.28 L369.94,108.25 L370.44,107.22 L370.94,106.20 L371.44,105.19 L371.94,104.19 L372.44,103.22 L372.94,102.27 L373.44,101.34 L373.94,100.45 L374.44,99.58 L374.94,98.76 L375.44,97.97 L375.94,97.22 L376.44,96.52 L376.94,95.85 L377.45,95.23 L377.95,94.66 L378.45,94.13 L378.95,93.65 L379.45,93.21 L379.95,92.82 L380.45,92.47 L380.95,92.17 L381.45,91.90 L381.95,91.68 L382.45,91.49 L382.95,91.33 L383.45,91.20 L383.95,91.11 L384.45,91.03 L384.95,90.98 L385.46,90.95 L385.96,90.93 L386.46,90.92 L386.96,90.92 L387.46,90.92 L387.96,90.92 L388.46,90.91 L388.96,90.89 L389.46,90.86 L389.96,90.82 L390.46,90.75 L390.96,90.65 L391.46,90.53 L391.96,90.38 L392.46,90.20 L392.96,89.98 L393.47,89.72 L393.97,89.42 L394.47,89.08 L394.97,88.70 L395.47,88.27 L395.97,87.80 L396.47,87.28 L396.97,86.71 L397.47,86.10 L397.97,85.45 L398.47,84.75 L398.97,84.01 L399.47,83.23 L399.97,82.41 L400.47,81.55 L400.97,80.66 L401.47,79.74 L401.98,78.80 L402.48,77.83 L402.98,76.84 L403.48,75.83 L403.98,74.81 L404.48,73.78 L404.98,72.75 L405.48,71.71 L405.98,70.68 L406.48,69.66 L406.98,68.66 L407.48,67.66 L407.98,66.69 L408.48,65.75 L408.98,64.83 L409.48,63.94 L409.99,63.09 L410.49,62.28 L410.99,61.51 L411.49,60.79 L411.99,60.11 L412.49,59.48 L412.99,58.89 L413.49,58.36 L413.99,57.88 L414.49,57.46 L414.99,57.08 L415.49,56.76 L415.99,56.49 L416.49,56.27 L416.99,56.10 L417.49,55.97 L418.00,55.89 L418.50,55.85 L419.00,55.84 L419.50,55.87 L420.00,55.94 L420.50,56.03 L421.00,56.14 L421.50,56.27 L422.00,56.41" style="stroke-width: 2; stroke: rgb(0, 0, 0); stroke-opacity: 0.6;"/><path d=" M14.00,152.11 L14.50,150.39 L15.00,148.70 L15.50,147.04 L16.00,145.43 L16.50,143.87 L17.00,142.39 L17.50,140.99 L18.00,139.67 L18.51,138.45 L19.01,137.32 L19.51,136.29 L20.01,135.37 L20.51,134.56 L21.01,133.85 L21.51,133.24 L22.01,132.74 L22.51,132.34 L23.01,132.03 L23.51,131.82 L24.01,131.69 L24.51,131.63 L25.01,131.65 L25.51,131.73 L26.01,131.87 L26.52,132.05 L27.02,132.26 L27.52,132.50 L28.02,132.76 L28.52,133.03 L29.02,133.30 L29.52,133.55 L30.02,133.79 L30.52,134.00 L31.02,134.17 L31.52,134.30 L32.02,134.39 L32.52,134.41 L33.02,134.38 L33.52,134.29 L34.02,134.12 L34.53,133.89 L35.03,133.58 L35.53,133.20 L36.03,132.75 L36.53,132.22 L37.03,131.62 L37.53,130.95 L38.03,130.22 L38.53,129.43 L39.03,128.57 L39.53,127.67 L40.03,126.72 L40.53,125.73 L41.03,124.70 L41.53,123.64 L42.03,122.57 L42.53,121.48 L43.04,120.38 L43.54,119.29 L44.04,118.20 L44.54,117.13 L45.04,116.08 L45.54,115.05 L46.04,114.06 L46.54,113.11 L47.04,112.20 L47.54,111.34 L48.04,110.53 L48.54,109.77 L49.04,109.08 L49.54,108.44 L50.04,107.86 L50.54,107.34 L51.05,106.89 L51.55,106.49 L52.05,106.15 L52.55,105.86 L53.05,105.63 L53.55,105.45 L54.05,105.31 L54.55,105.21 L55.05,105.14 L55.55,105.10 L56.05,105.09 L56.55,105.09 L57.05,105.11 L57.55,105.13 L58.05,105.15 L58.55,105.16 L59.06,105.16 L59.56,105.14 L60.06,105.10 L60.56,105.02 L61.06,104.91 L61.56,104.76 L62.06,104.57 L62.56,104.33 L63.06,104.04 L63.56,103.70 L64.06,103.30 L64.56,102.85 L65.06,102.35 L65.56,101.79 L66.06,101.17 L66.56,100.50 L67.07,99.78 L67.57,99.01 L68.07,98.20 L68.57,97.35 L69.07,96.46 L69.57,95.54 L70.07,94.59 L70.57,93.62 L71.07,92.63 L71.57,91.64 L72.07,90.63 L72.57,89.64 L73.07,88.64 L73.57,87.67 L74.07,86.71 L74.57,85.77 L75.07,84.87 L75.58,84.00 L76.08,83.17 L76.58,82.38 L77.08,81.64 L77.58,80.95 L78.08,80.31 L78.58,79.73 L79.08,79.20 L79.58,78.72 L80.08,78.30 L80.58,77.94 L81.08,77.63 L81.58,77.37 L82.08,77.15 L82.58,76.99 L83.08,76.86 L83.59,76.77 L84.09,76.71 L84.59,76.68 L85.09,76.68 L85.59,76.68 L86.09,76.70 L86.59,76.72 L87.09,76.74 L87.59,76.75 L88.09,76.75 L88.59,76.72 L89.09,76.67 L89.59,76.58 L90.09,76.46 L90.59,76.29 L91.09,76.08 L91.60,75.82 L92.10,75.50 L92.60,75.13 L93.10,74.70 L93.60,74.21 L94.10,73.66 L94.60,73.04 L95.10,72.37 L95.60,71.64 L96.10,70.86 L96.60,70.02 L97.10,69.13 L97.60,68.20 L98.10,67.22 L98.60,66.21 L99.10,65.17 L99.60,64.10 L100.11,63.02 L100.61,61.93 L101.11,60.83 L101.61,59.74 L102.11,58.66 L102.61,57.59 L103.11,56.55 L103.61,55.54 L104.11,54.57 L104.61,53.65 L105.11,52.77 L105.61,51.95 L106.11,51.19 L106.61,50.50 L107.11,49.87 L107.61,49.31 L108.12,48.83 L108.62,48.41 L109.12,48.08 L109.62,47.81 L110.12,47.62 L110.62,47.49 L111.12,47.43 L111.62,47.43 L112.12,47.49 L112.62,47.61 L113.12,47.76 L113.62,47.96 L114.12,48.18 L114.62,48.43 L115.12,48.69 L115.62,48.96 L116.13,49.23 L116.63,49.48 L117.13,49.70 L117.63,49.90 L118.13,50.05 L118.63,50.16 L119.13,50.20 L119.63,50.18 L120.13,50.09 L120.63,49.91 L121.13,49.64 L121.63,49.28 L122.13,48.82 L122.63,48.26 L123.13,47.60 L123.63,46.83 L124.13,45.95 L124.64,44.97 L125.14,43.89 L125.64,42.71 L126.14,41.43 L126.64,40.06 L127.14,38.61 L127.64,37.09 L128.14,35.50 L128.64,33.86 L129.14,32.18 L129.64,30.47 L130.14,28.74 L130.64,27.01 L131.14,25.30 L131.64,23.61 L132.14,21.97 L132.65,20.39 L133.15,18.88 L133.65,17.47 L134.15,16.17 L134.65,15.00 L135.15,13.97 L135.65,13.10 L136.15,12.40 L136.65,11.89 L137.15,11.58 L137.65,11.48 L138.15,11.61 L138.65,11.97 L139.15,12.58 L139.65,13.43 L140.15,14.54 L140.66,15.91 L141.16,17.54 L141.66,19.44 L142.16,21.60 L142.66,24.02 L143.16,26.70 L143.66,29.62 L144.16,32.79 L144.66,36.19 L145.16,39.82 L145.66,43.65 L146.16,47.69 L146.66,51.90 L147.16,56.28 L147.66,60.81 L148.16,65.47 L148.67,70.24 L149.17,75.10 L149.67,80.02 L150.17,85.00 L150.67,90.00 L151.17,95.00 L151.67,99.99 L152.17,104.93 L152.67,109.82 L153.17,114.62 L153.67,119.32 L154.17,123.90 L154.67,128.34 L155.17,132.62 L155.67,136.72 L156.17,140.63 L156.67,144.33 L157.18,147.82 L157.68,151.08 L158.18,154.09 L158.68,156.86 L159.18,159.38 L159.68,161.63 L160.18,163.63 L160.68,165.36 L161.18,166.82 L161.68,168.03 L162.18,168.98 L162.68,169.67 L163.18,170.12 L163.68,170.33 L164.18,170.32 L164.68,170.09 L165.19,169.65 L165.69,169.02 L166.19,168.21 L166.69,167.24 L167.19,166.11 L167.69,164.86 L168.19,163.49 L168.69,162.02 L169.19,160.46 L169.69,158.84 L170.19,157.17 L170.69,155.46 L171.19,153.74 L171.69,152.01 L172.19,150.29 L172.69,148.59 L173.20,146.93 L173.70,145.33 L174.20,143.78 L174.70,142.30 L175.20,140.90 L175.70,139.59 L176.20,138.37 L176.70,137.25 L177.20,136.23 L177.70,135.32 L178.20,134.51 L178.70,133.81 L179.20,133.21 L179.70,132.71 L180.20,132.32 L180.70,132.02 L181.20,131.81 L181.71,131.68 L182.21,131.63 L182.71,131.66 L183.21,131.74 L183.71,131.88 L184.21,132.06 L184.71,132.28 L185.21,132.52 L185.71,132.78 L186.21,133.05 L186.71,133.31 L187.21,133.57 L187.71,133.80 L188.21,134.01 L188.71,134.18 L189.21,134.31 L189.72,134.39 L190.22,134.41 L190.72,134.38 L191.22,134.28 L191.72,134.11 L192.22,133.87 L192.72,133.56 L193.22,133.17 L193.72,132.71 L194.22,132.18 L194.72,131.58 L195.22,130.91 L195.72,130.17 L196.22,129.38 L196.72,128.52 L197.22,127.61 L197.73,126.66 L198.23,125.66 L198.73,124.63 L199.23,123.58 L199.73,122.50 L200.23,121.41 L200.73,120.31 L201.23,119.22 L201.73,118.13 L202.23,117.06 L202.73,116.01 L203.23,114.99 L203.73,114.00 L204.23,113.05 L204.73,112.14 L205.23,111.28 L205.73,110.48 L206.24,109.73 L206.74,109.04 L207.24,108.40 L207.74,107.83 L208.24,107.31 L208.74,106.86 L209.24,106.47 L209.74,106.13 L210.24,105.85 L210.74,105.62 L211.24,105.44 L211.74,105.30 L212.24,105.20 L212.74,105.14 L213.24,105.10 L213.74,105.09 L214.25,105.09 L214.75,105.11 L215.25,105.13 L215.75,105.15 L216.25,105.16 L216.75,105.16 L217.25,105.14 L217.75,105.09 L218.25,105.02 L218.75,104.90 L219.25,104.75 L219.75,104.56 L220.25,104.31 L220.75,104.02 L221.25,103.68 L221.75,103.28 L222.26,102.82 L222.76,102.31 L223.26,101.75 L223.76,101.13 L224.26,100.46 L224.76,99.74 L225.26,98.97 L225.76,98.15 L226.26,97.29 L226.76,96.40 L227.26,95.48 L227.76,94.53 L228.26,93.56 L228.76,92.57 L229.26,91.57 L229.76,90.57 L230.27,89.57 L230.77,88.58 L231.27,87.61 L231.77,86.65 L232.27,85.72 L232.77,84.81 L233.27,83.95 L233.77,83.12 L234.27,82.33 L234.77,81.60 L235.27,80.91 L235.77,80.27 L236.27,79.69 L236.77,79.17 L237.27,78.70 L237.77,78.28 L238.27,77.92 L238.78,77.61 L239.28,77.35 L239.78,77.14 L240.28,76.98 L240.78,76.85 L241.28,76.77 L241.78,76.71 L242.28,76.68 L242.78,76.68 L243.28,76.68 L243.78,76.70 L244.28,76.72 L244.78,76.74 L245.28,76.75 L245.78,76.74 L246.28,76.72 L246.79,76.66 L247.29,76.57 L247.79,76.45 L248.29,76.28 L248.79,76.07 L249.29,75.80 L249.79,75.48 L250.29,75.10 L250.79,74.67 L251.29,74.17 L251.79,73.62 L252.29,73.00 L252.79,72.33 L253.29,71.60 L253.79,70.81 L254.29,69.96 L254.80,69.07 L255.30,68.14 L255.80,67.16 L256.30,66.15 L256.80,65.10 L257.30,64.04 L257.80,62.95 L258.30,61.86 L258.80,60.76 L259.30,59.67 L259.80,58.59 L260.30,57.53 L260.80,56.49 L261.30,55.48 L261.80,54.52 L262.30,53.59 L262.80,52.72 L263.31,51.90 L263.81,51.15 L264.31,50.46 L264.81,49.83 L265.31,49.28 L265.81,48.80 L266.31,48.39 L266.81,48.06 L267.31,47.80 L267.81,47.61 L268.31,47.49 L268.81,47.43 L269.31,47.44 L269.81,47.50 L270.31,47.61 L270.81,47.77 L271.32,47.97 L271.82,48.20 L272.32,48.45 L272.82,48.71 L273.32,48.98 L273.82,49.24 L274.32,49.49 L274.82,49.72 L275.32,49.91 L275.82,50.06 L276.32,50.16 L276.82,50.21 L277.32,50.18 L277.82,50.08 L278.32,49.89 L278.82,49.62 L279.33,49.26 L279.83,48.79 L280.33,48.23 L280.83,47.56 L281.33,46.78 L281.83,45.90 L282.33,44.91 L282.83,43.82 L283.33,42.63 L283.83,41.35 L284.33,39.97 L284.83,38.52 L285.33,36.99 L285.83,35.40 L286.33,33.76 L286.83,32.08 L287.33,30.36 L287.84,28.63 L288.34,26.91 L288.84,25.19 L289.34,23.51 L289.84,21.87 L290.34,20.29 L290.84,18.79 L291.34,17.39 L291.84,16.10 L292.34,14.93 L292.84,13.91 L293.34,13.05 L293.84,12.36 L294.34,11.87 L294.84,11.57 L295.34,11.49 L295.85,11.63 L296.35,12.00 L296.85,12.62 L297.35,13.49 L297.85,14.62 L298.35,16.01 L298.85,17.65 L299.35,19.57 L299.85,21.74 L300.35,24.18 L300.85,26.87 L301.35,29.81 L301.85,33.00 L302.35,36.41 L302.85,40.05 L303.35,43.90 L303.86,47.94 L304.36,52.17 L304.86,56.56 L305.36,61.10 L305.86,65.76 L306.36,70.54 L306.86,75.40 L307.36,80.33 L307.86,85.31 L308.36,90.31 L308.86,95.31 L309.36,100.30 L309.86,105.24 L310.36,110.12 L310.86,114.92 L311.36,119.61 L311.87,124.18 L312.37,128.61 L312.87,132.88 L313.37,136.97 L313.87,140.87 L314.37,144.56 L314.87,148.03 L315.37,151.27 L315.87,154.27 L316.37,157.03 L316.87,159.52 L317.37,161.76 L317.87,163.74 L318.37,165.45 L318.87,166.90 L319.37,168.09 L319.87,169.03 L320.38,169.71 L320.88,170.14 L321.38,170.34 L321.88,170.31 L322.38,170.07 L322.88,169.62 L323.38,168.97 L323.88,168.15 L324.38,167.17 L324.88,166.04 L325.38,164.78 L325.88,163.40 L326.38,161.92 L326.88,160.36 L327.38,158.74 L327.88,157.06 L328.39,155.35 L328.89,153.63 L329.39,151.90 L329.89,150.18 L330.39,148.49 L330.89,146.83 L331.39,145.23 L331.89,143.69 L332.39,142.21 L332.89,140.82 L333.39,139.51 L333.89,138.30 L334.39,137.19 L334.89,136.17 L335.39,135.27 L335.89,134.46 L336.40,133.77 L336.90,133.18 L337.40,132.69 L337.90,132.30 L338.40,132.00 L338.90,131.80 L339.40,131.68 L339.90,131.63 L340.40,131.66 L340.90,131.75 L341.40,131.89 L341.90,132.07 L342.40,132.29 L342.90,132.53 L343.40,132.80 L343.90,133.06 L344.40,133.33 L344.91,133.58 L345.41,133.82 L345.91,134.02 L346.41,134.19 L346.91,134.32 L347.41,134.39 L347.91,134.41 L348.41,134.37 L348.91,134.27 L349.41,134.10 L349.91,133.85 L350.41,133.54 L350.91,133.15 L351.41,132.68 L351.91,132.15 L352.41,131.54 L352.92,130.87 L353.42,130.13 L353.92,129.32 L354.42,128.46 L354.92,127.55 L355.42,126.60 L355.92,125.60 L356.42,124.57 L356.92,123.51 L357.42,122.43 L357.92,121.34 L358.42,120.25 L358.92,119.15 L359.42,118.07 L359.92,116.99 L360.42,115.95 L360.93,114.93 L361.43,113.94 L361.93,112.99 L362.43,112.09 L362.93,111.23 L363.43,110.43 L363.93,109.68 L364.43,108.99 L364.93,108.36 L365.43,107.79 L365.93,107.28 L366.43,106.84 L366.93,106.44 L367.43,106.11 L367.93,105.83 L368.43,105.61 L368.93,105.43 L369.44,105.29 L369.94,105.20 L370.44,105.13 L370.94,105.10 L371.44,105.09 L371.94,105.09 L372.44,105.11 L372.94,105.13 L373.44,105.15 L373.94,105.16 L374.44,105.16 L374.94,105.14 L375.44,105.09 L375.94,105.01 L376.44,104.90 L376.94,104.74 L377.45,104.54 L377.95,104.30 L378.45,104.00 L378.95,103.65 L379.45,103.25 L379.95,102.79 L380.45,102.28 L380.95,101.71 L381.45,101.09 L381.95,100.41 L382.45,99.69 L382.95,98.92 L383.45,98.10 L383.95,97.24 L384.45,96.35 L384.95,95.42 L385.46,94.47 L385.96,93.50 L386.46,92.51 L386.96,91.51 L387.46,90.51 L387.96,89.51 L388.46,88.52 L388.96,87.55 L389.46,86.59 L389.96,85.66 L390.46,84.76 L390.96,83.89 L391.46,83.07 L391.96,82.29 L392.46,81.55 L392.96,80.87 L393.47,80.24 L393.97,79.66 L394.47,79.14 L394.97,78.67 L395.47,78.26 L395.97,77.90 L396.47,77.59 L396.97,77.34 L397.47,77.13 L397.97,76.97 L398.47,76.85 L398.97,76.76 L399.47,76.71 L399.97,76.68 L400.47,76.68 L400.97,76.69 L401.47,76.70 L401.98,76.72 L402.48,76.74 L402.98,76.75 L403.48,76.74 L403.98,76.71 L404.48,76.66 L404.98,76.57 L405.48,76.44 L405.98,76.27 L406.48,76.05 L406.98,75.78 L407.48,75.46 L407.98,75.08 L408.48,74.64 L408.98,74.14 L409.48,73.58 L409.99,72.96 L410.49,72.29 L410.99,71.55 L411.49,70.76 L411.99,69.91 L412.49,69.02 L412.99,68.08 L413.49,67.10 L413.99,66.08 L414.49,65.04 L414.99,63.97 L415.49,62.89 L415.99,61.79 L416.49,60.70 L416.99,59.60 L417.49,58.52 L418.00,57.46 L418.50,56.43 L419.00,55.42 L419.50,54.46 L420.00,53.54 L420.50,52.67 L421.00,51.86 L421.50,51.10 L422.00,50.42" style="stroke-width: 2; stroke: rgb(0, 0, 0); stroke-opacity: 0.8;"/></g></g><g><g class="test-xti" style="font-family: Asana-Math, Asana;"><line x1="25.29629342007914" y1="0" x2="25.29629342007914" y2="4" fill="none" stroke="rgb(50,50,50)" stroke-opacity="1" stroke-width="1"/><line x1="88.02805712831538" y1="0" x2="88.02805712831538" y2="4" fill="none" stroke="rgb(50,50,50)" stroke-opacity="1" stroke-width="1"/><line x1="150.75982083655163" y1="0" x2="150.75982083655163" y2="4" fill="none" stroke="rgb(50,50,50)" stroke-opacity="1" stroke-width="1"/><line x1="213.49158454478786" y1="0" x2="213.49158454478786" y2="4" fill="none" stroke="rgb(50,50,50)" stroke-opacity="1" stroke-width="1"/><line x1="276.2233482530241" y1="0" x2="276.2233482530241" y2="4" fill="none" stroke="rgb(50,50,50)" stroke-opacity="1" stroke-width="1"/><line x1="338.95511196126034" y1="0" x2="338.95511196126034" y2="4" fill="none" stroke="rgb(50,50,50)" stroke-opacity="1" stroke-width="1"/><line x1="401.68687566949654" y1="0" x2="401.68687566949654" y2="4" fill="none" stroke="rgb(50,50,50)" stroke-opacity="1" stroke-width="1"/></g><g class="test-xti" style="font-family: Asana-Math, Asana;"><line x1="25.29629342007914" y1="185" x2="25.29629342007914" y2="189" fill="none" stroke="rgb(50,50,50)" stroke-opacity="1" stroke-width="1"/><line x1="88.02805712831538" y1="185" x2="88.02805712831538" y2="189" fill="none" stroke="rgb(50,50,50)" stroke-opacity="1" stroke-width="1"/><line x1="150.75982083655163" y1="185" x2="150.75982083655163" y2="189" fill="none" stroke="rgb(50,50,50)" stroke-opacity="1" stroke-width="1"/><line x1="213.49158454478786" y1="185" x2="213.49158454478786" y2="189" fill="none" stroke="rgb(50,50,50)" stroke-opacity="1" stroke-width="1"/><line x1="276.2233482530241" y1="185" x2="276.2233482530241" y2="189" fill="none" stroke="rgb(50,50,50)" stroke-opacity="1" stroke-width="1"/><line x1="338.95511196126034" y1="185" x2="338.95511196126034" y2="189" fill="none" stroke="rgb(50,50,50)" stroke-opacity="1" stroke-width="1"/><line x1="401.68687566949654" y1="185" x2="401.68687566949654" y2="189" fill="none" stroke="rgb(50,50,50)" stroke-opacity="1" stroke-width="1"/></g></g><g><g class="test-yti" style="font-family: Asana-Math, Asana;"><line x1="11" y1="153.65119195580985" x2="15" y2="153.65119195580985" fill="none" stroke="rgb(50,50,50)" stroke-opacity="1" stroke-width="1"/><line x1="11" y1="90.9194282475736" x2="15" y2="90.9194282475736" fill="none" stroke="rgb(50,50,50)" stroke-opacity="1" stroke-width="1"/><line x1="11" y1="28.187664539337362" x2="15" y2="28.187664539337362" fill="none" stroke="rgb(50,50,50)" stroke-opacity="1" stroke-width="1"/></g><g class="test-yti" style="font-family: Asana-Math, Asana;"><line x1="421" y1="153.65119195580985" x2="425" y2="153.65119195580985" fill="none" stroke="rgb(50,50,50)" stroke-opacity="1" stroke-width="1"/><line x1="421" y1="90.9194282475736" x2="425" y2="90.9194282475736" fill="none" stroke="rgb(50,50,50)" stroke-opacity="1" stroke-width="1"/><line x1="421" y1="28.187664539337362" x2="425" y2="28.187664539337362" fill="none" stroke="rgb(50,50,50)" stroke-opacity="1" stroke-width="1"/></g></g><g class="test-xtl" style="font-family: &quot;Open Sans&quot;, verdana, arial, sans-serif;"><text text-anchor="middle" font-size="11" dominant-baseline="hanging" stroke="none" fill="rgb(50,50,50)" fill-opacity="1" x="22.16129342007914" y="192">-5</text><text text-anchor="middle" font-size="11" dominant-baseline="hanging" stroke="none" fill="rgb(50,50,50)" fill-opacity="1" x="84.89305712831538" y="192">-2.5</text><text text-anchor="middle" font-size="11" dominant-baseline="hanging" stroke="none" fill="rgb(50,50,50)" fill-opacity="1" x="150.75982083655163" y="192">0</text><text text-anchor="middle" font-size="11" dominant-baseline="hanging" stroke="none" fill="rgb(50,50,50)" fill-opacity="1" x="213.49158454478786" y="192">2.5</text><text text-anchor="middle" font-size="11" dominant-baseline="hanging" stroke="none" fill="rgb(50,50,50)" fill-opacity="1" x="276.2233482530241" y="192">5</text><text text-anchor="middle" font-size="11" dominant-baseline="hanging" stroke="none" fill="rgb(50,50,50)" fill-opacity="1" x="338.95511196126034" y="192">7.5</text><text text-anchor="middle" font-size="11" dominant-baseline="hanging" stroke="none" fill="rgb(50,50,50)" fill-opacity="1" x="401.68687566949654" y="192">10</text></g><g class="test-ytl" style="font-family: &quot;Open Sans&quot;, verdana, arial, sans-serif;"><text text-anchor="end" dominant-baseline="middle" font-size="11" stroke="none" fill="rgb(50,50,50)" fill-opacity="1" x="7" y="153.65119195580985">-2.5</text><text text-anchor="end" dominant-baseline="middle" font-size="11" stroke="none" fill="rgb(50,50,50)" fill-opacity="1" x="7" y="90.9194282475736">0</text><text text-anchor="end" dominant-baseline="middle" font-size="11" stroke="none" fill="rgb(50,50,50)" fill-opacity="1" x="7" y="28.187664539337362">2.5</text></g></g></g></g><g/></g><g/><g/><g/></svg>
        <svg xmlns="http://www.w3.org/2000/svg" xmlns:xlink="http://www.w3.org/1999/xlink" width="660" height="223.33334350585938" style="width:660px;height:223.33334350585938px;font-family:Asana-Math, Asana;background:#FFF;"></svg>
</svg>
